<svg width="32" height="32" viewBox="0 0 32 32" fill="none" xmlns="http://www.w3.org/2000/svg">
<path d="M15.6013 2.64795C8.46269 2.64795 2.62201 8.47565 2.62201 15.6532C2.62201 22.1429 7.37243 27.5293 13.5765 28.5027V19.4172H10.2798V15.6532H13.5765V12.7848C13.5765 9.52698 15.5105 7.73583 18.4827 7.73583C19.8975 7.73583 21.3771 7.98244 21.3771 7.98244V11.1883H19.7417C18.1323 11.1883 17.6261 12.1877 17.6261 13.2131V15.6532H21.2343L20.6503 19.4172H17.6261V28.5027C20.6845 28.0196 23.4696 26.4591 25.4784 24.1028C27.4872 21.7465 28.5876 18.7496 28.5806 15.6532C28.5806 8.47565 22.7399 2.64795 15.6013 2.64795Z" fill="white" fill-opacity="0.5"/>
</svg>
