<svg width="32" height="32" viewBox="0 0 32 32" fill="none" xmlns="http://www.w3.org/2000/svg">
<g clip-path="url(#clip0_415_531)">
<path fill-rule="evenodd" clip-rule="evenodd" d="M16.0882 0C24.6904 0 31.6634 7.14889 31.6634 15.9691C31.6634 23.0231 27.2058 29.0071 21.0209 31.1207C20.2312 31.278 19.9509 30.7793 19.9509 30.3541C19.9509 29.8276 19.9695 28.1082 19.9695 25.9713C19.9695 24.4823 19.4711 23.5105 18.912 23.0152C22.3806 22.6196 26.0252 21.2691 26.0252 15.1356C26.0252 13.3912 25.4208 11.9677 24.4209 10.8494C24.5829 10.446 25.1171 8.82169 24.2683 6.62248C24.2683 6.62248 22.9631 6.19459 19.9898 8.25985C18.7453 7.9063 17.4121 7.7284 16.0882 7.72217C14.7643 7.7284 13.4327 7.9063 12.1898 8.25985C9.21335 6.19459 7.90503 6.62248 7.90503 6.62248C7.0593 8.82169 7.59353 10.446 7.75395 10.8494C6.7587 11.9677 6.14972 13.3912 6.14972 15.1356C6.14972 21.2535 9.78651 22.6247 13.2458 23.0281C12.8003 23.4268 12.3969 24.1302 12.2567 25.1628C11.3689 25.5709 9.11366 26.2772 7.72435 23.8365C7.72435 23.8365 6.90043 22.3022 5.33669 22.19C5.33669 22.19 3.81811 22.1699 5.23078 23.1604C5.23078 23.1604 6.25095 23.6511 6.95962 25.4967C6.95962 25.4967 7.87389 28.3469 12.2069 27.3812C12.2147 28.716 12.2287 29.974 12.2287 30.3541C12.2287 30.7761 11.9421 31.2701 11.1649 31.1222C4.97534 29.0117 0.513062 23.0246 0.513062 15.9691C0.513062 7.14889 7.48762 0 16.0882 0Z" fill="white" fill-opacity="0.5"/>
</g>
<defs>
<clipPath id="clip0_415_531">
<rect width="31.1503" height="31.1503" fill="white" transform="translate(0.513062)"/>
</clipPath>
</defs>
</svg>
