<svg width="32" height="32" viewBox="0 0 32 32" fill="none" xmlns="http://www.w3.org/2000/svg">
<path fill-rule="evenodd" clip-rule="evenodd" d="M16.1143 23.6606C20.4152 23.6606 23.9019 20.174 23.9019 15.873C23.9019 11.5721 20.4152 8.08545 16.1143 8.08545C11.8133 8.08545 8.32672 11.5721 8.32672 15.873C8.32672 20.174 11.8133 23.6606 16.1143 23.6606ZM16.1143 21.0647C18.9816 21.0647 21.306 18.7403 21.306 15.873C21.306 13.0057 18.9816 10.6813 16.1143 10.6813C13.247 10.6813 10.9226 13.0057 10.9226 15.873C10.9226 18.7403 13.247 21.0647 16.1143 21.0647Z" fill="white" fill-opacity="0.5"/>
<path d="M23.9019 6.7876C23.185 6.7876 22.6039 7.36871 22.6039 8.08553C22.6039 8.80235 23.185 9.38346 23.9019 9.38346C24.6187 9.38346 25.1998 8.80235 25.1998 8.08553C25.1998 7.36871 24.6187 6.7876 23.9019 6.7876Z" fill="white" fill-opacity="0.5"/>
<path fill-rule="evenodd" clip-rule="evenodd" d="M2.68583 5.8478C1.83704 7.51365 1.83704 9.69438 1.83704 14.0558V17.69C1.83704 22.0515 1.83704 24.2322 2.68583 25.898C3.43245 27.3634 4.6238 28.5547 6.08913 29.3013C7.75499 30.1502 9.93571 30.1502 14.2972 30.1502H17.9314C22.2928 30.1502 24.4736 30.1502 26.1393 29.3013C27.6047 28.5547 28.7961 27.3634 29.5426 25.898C30.3915 24.2322 30.3915 22.0515 30.3915 17.69V14.0558C30.3915 9.69438 30.3915 7.51365 29.5426 5.8478C28.7961 4.38246 27.6047 3.19112 26.1393 2.4445C24.4736 1.5957 22.2928 1.5957 17.9314 1.5957H14.2972C9.93571 1.5957 7.75499 1.5957 6.08913 2.4445C4.6238 3.19112 3.43245 4.38246 2.68583 5.8478ZM17.9314 4.19156H14.2972C12.0736 4.19156 10.562 4.19359 9.39369 4.28904C8.25561 4.38202 7.67362 4.55056 7.26763 4.75742C6.29074 5.25518 5.49651 6.04941 4.99875 7.02629C4.79189 7.43229 4.62335 8.01428 4.53037 9.15235C4.43492 10.3207 4.4329 11.8323 4.4329 14.0558V17.69C4.4329 19.9136 4.43492 21.4251 4.53037 22.5935C4.62335 23.7316 4.79189 24.3136 4.99875 24.7196C5.49651 25.6964 6.29074 26.4906 7.26763 26.9884C7.67362 27.1953 8.25561 27.3639 9.39369 27.4568C10.562 27.5522 12.0736 27.5543 14.2972 27.5543H17.9314C20.155 27.5543 21.6664 27.5522 22.8348 27.4568C23.973 27.3639 24.555 27.1953 24.961 26.9884C25.9378 26.4906 26.732 25.6964 27.2297 24.7196C27.4366 24.3136 27.6052 23.7316 27.6982 22.5935C27.7936 21.4251 27.7956 19.9136 27.7956 17.69V14.0558C27.7956 11.8323 27.7936 10.3207 27.6982 9.15235C27.6052 8.01428 27.4366 7.43229 27.2297 7.02629C26.732 6.04941 25.9378 5.25518 24.961 4.75742C24.555 4.55056 23.973 4.38202 22.8348 4.28904C21.6664 4.19359 20.155 4.19156 17.9314 4.19156Z" fill="white" fill-opacity="0.5"/>
</svg>
