<svg width="32" height="32" viewBox="0 0 32 32" fill="none" xmlns="http://www.w3.org/2000/svg">
<path d="M26.374 5.48917H9.0466C8.82326 5.47871 8.60004 5.51239 8.38974 5.5883C8.17944 5.66422 7.98618 5.78086 7.821 5.93155C7.65584 6.08226 7.52201 6.26406 7.4272 6.46653C7.33238 6.66902 7.27843 6.88822 7.26843 7.11158V24.4779C7.28152 24.9453 7.47306 25.3901 7.80374 25.7207C8.13441 26.0514 8.57913 26.243 9.0466 26.2561H26.374C26.8284 26.2358 27.2568 26.0383 27.5674 25.7059C27.878 25.3735 28.0459 24.9327 28.0353 24.4779V7.11158C28.0391 6.89418 27.9983 6.67832 27.9156 6.47722C27.833 6.27613 27.71 6.09404 27.5544 5.94212C27.3989 5.79021 27.214 5.67168 27.011 5.59379C26.808 5.5159 26.5912 5.4803 26.374 5.48917ZM13.7581 22.8036H10.7339V13.5493H13.7581V22.8036ZM12.3174 12.1475C12.1063 12.1549 11.8961 12.1185 11.6998 12.0407C11.5035 11.9629 11.3254 11.8454 11.1767 11.6955C11.028 11.5455 10.9119 11.3665 10.8357 11.1696C10.7595 10.9726 10.7248 10.7621 10.7339 10.5511C10.7246 10.3378 10.7599 10.125 10.8377 9.92623C10.9154 9.72744 11.0339 9.54711 11.1854 9.39679C11.337 9.24647 11.5182 9.12948 11.7176 9.05335C11.9171 8.9772 12.1302 8.94358 12.3433 8.95464C12.5544 8.94729 12.7646 8.98365 12.9609 9.06145C13.1573 9.13924 13.3354 9.2568 13.484 9.40672C13.6328 9.55665 13.7489 9.73569 13.825 9.93263C13.9012 10.1296 13.9359 10.3401 13.9268 10.5511C13.9361 10.7643 13.9008 10.9772 13.823 11.176C13.7453 11.3747 13.6268 11.5551 13.4753 11.7054C13.3238 11.8557 13.1425 11.9727 12.9431 12.0488C12.7437 12.125 12.5305 12.1586 12.3174 12.1475ZM24.5828 22.8036H21.5457V17.7417C21.5457 16.5346 21.1173 15.7039 20.0401 15.7039C19.7055 15.7068 19.3798 15.8131 19.108 16.0083C18.8361 16.2035 18.6313 16.478 18.5215 16.7942C18.4371 17.0312 18.4018 17.2828 18.4176 17.534V22.8036H15.4324V13.5493H18.4176V14.8473C18.6831 14.3596 19.078 13.955 19.559 13.6777C20.0401 13.4006 20.5883 13.2618 21.1433 13.2767C23.1032 13.2767 24.5828 14.5747 24.5828 17.3393V22.8036Z" fill="white" fill-opacity="0.5"/>
</svg>
