<svg width="112" height="23" viewBox="0 0 112 23" fill="none" xmlns="http://www.w3.org/2000/svg">
<g clip-path="url(#clip0_425_924)">
<path d="M33.2845 0.352539H43.0767L40.9671 4.36483H33.2845C32.5624 4.36483 31.9499 4.59985 31.4431 5.06981C30.9363 5.53977 30.6829 6.10567 30.6829 6.76553C30.6829 7.42546 30.9363 7.99329 31.4431 8.46718C31.9499 8.94107 32.5644 9.17801 33.2845 9.17801H33.8589V13.1786H33.2571C32.007 13.1707 30.8518 12.8809 29.7917 12.3091C28.7317 11.7373 27.8932 10.9619 27.2724 9.97893C26.6516 8.99789 26.3412 7.92676 26.3412 6.76553C26.3412 5.6063 26.6516 4.53517 27.2724 3.5522C27.8932 2.57116 28.7358 1.7918 29.8002 1.21609C30.8623 0.640391 32.0238 0.352539 33.2845 0.352539ZM36.1734 13.204H35.599V9.17801L36.1734 9.19172C37.4236 9.19172 38.5807 9.47763 39.6451 10.0494C40.7094 10.6212 41.5498 11.4005 42.1707 12.3855C42.7915 13.3725 43.102 14.4494 43.102 15.6165C43.102 16.4801 42.9162 17.3083 42.5466 18.0995C42.1771 18.8905 41.6829 19.57 41.0684 20.1379C40.4517 20.7058 39.7148 21.1581 38.8574 21.4969C38 21.8357 37.1047 22.0041 36.1734 22.0041H28.4909L26.4087 18.0172H36.1734C36.885 18.0172 37.4974 17.7822 38.0085 17.3122C38.5195 16.8423 38.7751 16.2764 38.7751 15.6165C38.7751 14.9487 38.5195 14.3789 38.0085 13.9089C37.4974 13.439 36.885 13.204 36.1734 13.204Z" fill="#009ACE"/>
<path d="M56.3194 0.352539V22.0041H51.9924V4.36483H45.0765L45.748 3.04505L45.9402 2.68867L46.0078 2.58679L47.1587 0.352539H54.1696H56.3194ZM58.0446 0.352539H63.2627V4.36483H58.0446V0.352539Z" fill="#009ACE"/>
<path d="M84.4201 6.7534C84.4201 8.17499 83.9657 9.4498 83.0579 10.5758C82.1502 11.7016 80.9818 12.4673 79.5586 12.8747L84.31 22.0056H79.489L72.8054 9.1541H77.5022C78.2134 9.1541 78.8258 8.91908 79.3375 8.44912C79.8483 7.97916 80.1042 7.41326 80.1042 6.7534C80.1042 6.09347 79.8483 5.52564 79.3375 5.05175C78.8258 4.57786 78.2134 4.34092 77.5022 4.34092H71.0782V12.6201V22.0056H66.7513V0.32666H77.5022C78.4335 0.32666 79.3262 0.498981 80.1794 0.84166C81.0326 1.18434 81.7701 1.64253 82.391 2.21236C83.0119 2.78419 83.5038 3.46754 83.8688 4.26261C84.2385 5.05953 84.4201 5.8898 84.4201 6.7534Z" fill="#009ACE"/>
<path d="M99.8671 17.9913C101.557 17.9913 103.078 17.4998 104.429 16.5188L107.497 19.3758C106.447 20.206 105.27 20.8503 103.964 21.3124C102.659 21.7746 101.293 22.0036 99.87 22.0036C98.2811 22.0036 96.7676 21.7177 95.3292 21.146C93.8909 20.5741 92.6492 19.8046 91.6041 18.8353C90.559 17.866 89.7293 16.7146 89.1122 15.3811C88.496 14.0476 88.1875 12.6436 88.1875 11.171C88.1875 9.85123 88.4368 8.58427 88.9325 7.37414C89.4311 6.16401 90.1263 5.07131 91.0218 4.09813L94.1026 6.96879C93.0424 8.19655 92.5147 9.59665 92.5147 11.173C92.5147 12.4086 92.8439 13.5502 93.5005 14.5959C94.1571 15.6415 95.0508 16.4699 96.1787 17.0788C97.3056 17.6858 98.5351 17.9913 99.8671 17.9913ZM99.8671 0.32666C101.137 0.32666 102.367 0.508769 103.558 0.872993C104.75 1.23721 105.825 1.75418 106.783 2.42189C107.743 3.0916 108.583 3.86896 109.302 4.75798C110.023 5.647 110.581 6.64375 110.973 7.74815C111.366 8.85255 111.563 9.99415 111.563 11.171C111.563 13.8204 110.618 16.1742 108.728 18.2322L105.648 15.3869C106.708 14.1338 107.236 12.7277 107.236 11.171C107.236 9.93539 106.906 8.79187 106.249 7.74222C105.592 6.69265 104.697 5.86238 103.565 5.25343C102.433 4.6444 101.2 4.33892 99.8671 4.33892C98.1701 4.33892 96.6575 4.83044 95.3339 5.81148L92.255 2.95646C94.4723 1.20392 97.0103 0.32666 99.8671 0.32666Z" fill="#009ACE"/>
<path d="M9.73675 12.6527L4.81355 22.3988H0L11.2531 0.0996094L22.5232 22.3988H6.7406L8.81966 18.2588H15.6165L11.2531 9.65007L9.73675 12.6527Z" fill="#009ACE"/>
</g>
<defs>
<clipPath id="clip0_425_924">
<rect width="112" height="22.2992" fill="white" transform="translate(0 0.0996094)"/>
</clipPath>
</defs>
</svg>
