<svg width="1080" height="720" viewBox="0 0 1080 720" fill="none" xmlns="http://www.w3.org/2000/svg">
<g clip-path="url(#clip0_430_1150)">
<path d="M0 0H1080V720H0V0Z" fill="#252525"/>
<path d="M593.646 84.5228C593.66 84.552 593.66 84.5957 593.66 84.6395V90.8957C593.66 91.0416 593.573 91.2166 593.442 91.2895L588.177 94.3228V100.317C588.177 100.477 588.104 100.623 587.958 100.71L576.992 107.025C576.963 107.039 576.933 107.083 576.904 107.083H576.583C576.583 107.083 576.583 107.039 576.525 107.025L565.558 100.71C565.491 100.669 565.436 100.611 565.397 100.542C565.359 100.473 565.339 100.395 565.34 100.317V81.5624C565.34 81.4895 565.34 81.4457 565.354 81.4166C565.354 81.402 565.369 81.3874 565.369 81.3728C565.369 81.3437 565.383 81.3291 565.398 81.2999C565.398 81.2853 565.413 81.2707 565.427 81.2562L565.471 81.2124L565.515 81.1687C565.529 81.1541 565.544 81.1395 565.558 81.1395L571.042 77.9749C571.188 77.9166 571.363 77.9166 571.479 77.9749L576.992 81.1395C577.006 81.1541 577.021 81.1541 577.035 81.1687L577.079 81.2124L577.123 81.2562C577.138 81.2707 577.152 81.2853 577.152 81.2999C577.167 81.3291 577.181 81.3437 577.181 81.3728C577.181 81.3874 577.196 81.402 577.196 81.4166C577.21 81.4603 577.21 81.4895 577.21 81.5624V93.2291L581.79 90.6332V84.6395C581.79 84.5957 581.79 84.552 581.804 84.5228L581.819 84.4791C581.819 84.4791 581.833 84.4353 581.848 84.4062C581.848 84.3916 581.863 84.377 581.877 84.3624L581.921 84.3187L581.965 84.2749C581.979 84.2603 581.994 84.2457 582.008 84.2457L587.521 81.0812C587.638 80.9937 587.813 80.9937 587.958 81.0812L593.442 84.2457C593.456 84.2457 593.471 84.2603 593.485 84.2749L593.529 84.3187L593.573 84.3624C593.588 84.377 593.588 84.3916 593.602 84.4062C593.617 84.4353 593.617 84.4791 593.631 84.4791C593.646 84.4791 593.646 84.4791 593.646 84.5228ZM592.756 90.6332V85.427L588.177 88.052V93.2291L592.756 90.6332ZM587.273 100.054V94.8332L577.21 100.579V105.844L587.273 100.054ZM566.244 82.2916V100.054L576.306 105.844V100.579L571.056 97.6041H571.042C571.027 97.6041 571.013 97.6041 570.998 97.5603C570.983 97.5603 570.969 97.5457 570.954 97.5312L570.91 97.4874C570.896 97.4728 570.896 97.4582 570.881 97.4437C570.867 97.4145 570.867 97.3999 570.852 97.3853C570.852 97.3562 570.838 97.3416 570.838 97.327C570.823 97.3124 570.823 97.2832 570.823 97.2687V84.9457L566.244 82.2916ZM571.275 78.9082L566.71 81.5624L571.275 84.1582L575.854 81.5624L571.275 78.9082ZM576.306 93.7832V82.2916L571.727 84.9457V96.4228L576.306 93.7832ZM587.725 81.9999L583.146 84.6395L587.725 87.2645L592.29 84.6395L587.725 81.9999ZM587.273 88.052L582.694 85.427V90.6332L587.273 93.2291V88.052ZM576.758 99.7916L586.792 94.0457L582.242 91.4207L572.208 97.2103L576.758 99.7916Z" fill="white" fill-opacity="0.2"/>
<g clip-path="url(#clip1_430_1150)">
<path d="M721.37 421.645L717.342 433.358M721.37 421.645L733.921 435.198C734.782 435.541 735.635 434.951 735.885 433.899L751.139 398.192C751.387 397.023 750.949 395.86 750.174 395.516L698.229 414.825C697.981 415.994 698.419 417.157 699.194 417.501L717.234 419.577M721.37 421.645L750.678 396.825L717.234 419.577M717.342 433.358L724.478 425.001M717.342 433.358L717.234 419.577" stroke="white" stroke-opacity="0.3" stroke-linejoin="round"/>
</g>
<g clip-path="url(#clip2_430_1150)">
<path d="M869.609 550.132C869.524 549.754 869.761 549.37 870.141 549.286C870.52 549.201 870.894 549.433 870.979 549.812L870.982 549.826C871.067 550.205 870.828 550.581 870.448 550.665C870.069 550.75 869.693 550.512 869.609 550.132ZM859.509 517.794C859.424 517.416 859.661 517.033 860.041 516.948C860.42 516.863 860.794 517.095 860.879 517.475L860.882 517.488C860.966 517.867 860.728 518.243 860.348 518.328C859.969 518.412 859.594 518.174 859.509 517.794ZM871.117 531.058C871.033 530.68 871.269 530.297 871.649 530.212C872.028 530.127 872.402 530.359 872.487 530.738L872.49 530.752C872.575 531.131 872.336 531.507 871.957 531.592C871.577 531.676 871.202 531.438 871.117 531.058ZM878.165 562.636C878.08 562.258 878.317 561.874 878.696 561.79C879.076 561.705 879.45 561.937 879.535 562.316L879.538 562.329C879.622 562.709 879.384 563.084 879.004 563.169C878.625 563.254 878.249 563.015 878.165 562.636ZM855.597 577.762C855.512 577.384 855.749 577 856.128 576.916C856.508 576.831 856.882 577.063 856.967 577.442L856.97 577.456C857.054 577.835 856.816 578.211 856.436 578.295C856.057 578.38 855.681 578.141 855.597 577.762ZM844.454 573.042C844.37 572.664 844.606 572.281 844.986 572.196C845.365 572.111 845.739 572.343 845.824 572.722L845.827 572.736C845.911 573.115 845.673 573.491 845.294 573.575C844.914 573.66 844.539 573.422 844.454 573.042ZM824.401 502.569C824.317 502.191 824.554 501.807 824.933 501.722C825.313 501.638 825.687 501.869 825.771 502.249L825.774 502.262C825.859 502.642 825.621 503.017 825.241 503.102C824.862 503.187 824.486 502.948 824.401 502.569ZM810.525 511.431C810.44 511.053 810.677 510.669 811.057 510.585C811.436 510.5 811.81 510.732 811.895 511.111L811.898 511.125C811.982 511.504 811.744 511.88 811.365 511.964C810.985 512.049 810.61 511.81 810.525 511.431ZM797.09 502.899C797.006 502.521 797.242 502.137 797.622 502.052C798.001 501.968 798.375 502.2 798.46 502.579L798.463 502.592C798.548 502.972 798.309 503.347 797.93 503.432C797.55 503.517 797.175 503.278 797.09 502.899ZM813.183 581.463C813.098 581.085 813.335 580.701 813.715 580.616C814.094 580.532 814.468 580.764 814.553 581.143L814.556 581.156C814.576 581.246 814.578 581.34 814.562 581.431C814.546 581.522 814.513 581.609 814.463 581.687C814.414 581.765 814.349 581.832 814.274 581.885C814.198 581.938 814.113 581.976 814.023 581.996C813.932 582.016 813.839 582.018 813.748 582.002C813.657 581.987 813.57 581.953 813.492 581.903C813.414 581.854 813.347 581.789 813.294 581.714C813.24 581.638 813.203 581.553 813.183 581.463ZM796.194 524.719C796.11 524.341 796.347 523.957 796.726 523.872C797.106 523.788 797.48 524.019 797.564 524.399L797.567 524.412C797.652 524.792 797.414 525.167 797.034 525.252C796.655 525.337 796.279 525.098 796.194 524.719ZM786.621 539.948C786.537 539.569 786.774 539.186 787.153 539.102C787.533 539.017 787.907 539.249 787.991 539.628L787.994 539.642C788.014 539.732 788.017 539.825 788.001 539.916C787.985 540.007 787.951 540.094 787.902 540.172C787.852 540.25 787.788 540.318 787.712 540.371C787.637 540.424 787.551 540.461 787.461 540.481C787.371 540.502 787.278 540.504 787.187 540.488C787.096 540.472 787.009 540.438 786.931 540.389C786.853 540.339 786.785 540.275 786.732 540.199C786.679 540.124 786.642 540.038 786.621 539.948ZM796.218 550.657C796.134 550.279 796.371 549.895 796.75 549.811C797.13 549.726 797.504 549.958 797.588 550.337L797.591 550.351C797.676 550.73 797.437 551.106 797.058 551.19C796.679 551.275 796.303 551.036 796.218 550.657ZM799.919 593.071C799.835 592.693 800.071 592.309 800.451 592.225C800.83 592.14 801.204 592.372 801.289 592.751L801.292 592.765C801.377 593.144 801.138 593.52 800.759 593.604C800.379 593.689 800.004 593.451 799.919 593.071ZM797.456 569.118C797.371 568.74 797.608 568.357 797.988 568.272C798.367 568.187 798.741 568.419 798.826 568.798L798.829 568.812C798.913 569.191 798.675 569.567 798.296 569.651C797.916 569.736 797.541 569.497 797.456 569.118ZM800.962 565.453C800.877 565.075 801.114 564.691 801.494 564.607C801.873 564.522 802.247 564.754 802.332 565.133L802.335 565.147C802.419 565.526 802.181 565.902 801.801 565.986C801.422 566.071 801.047 565.832 800.962 565.453Z" fill="white" fill-opacity="0.1"/>
<path d="M794.854 570.377C794.009 566.592 796.402 562.825 800.187 561.98C803.971 561.136 807.739 563.528 808.583 567.313C809.428 571.098 807.036 574.865 803.251 575.71C799.466 576.554 795.699 574.162 794.854 570.377ZM807.211 567.619C806.535 564.59 803.522 562.677 800.493 563.353C797.464 564.029 795.551 567.042 796.227 570.071C796.903 573.098 799.916 575.013 802.945 574.337C805.973 573.661 807.886 570.647 807.211 567.619Z" fill="white" fill-opacity="0.1"/>
<path d="M802.178 570.904C801.925 569.769 802.643 568.639 803.778 568.385C804.914 568.132 806.044 568.85 806.297 569.985C806.551 571.121 805.833 572.251 804.697 572.504C803.562 572.757 802.432 572.04 802.178 570.904ZM804.924 570.292C804.883 570.11 804.772 569.951 804.615 569.851C804.457 569.751 804.267 569.718 804.085 569.758C803.903 569.799 803.744 569.91 803.644 570.068C803.544 570.225 803.511 570.416 803.551 570.598C803.636 570.976 804.013 571.216 804.391 571.131C804.769 571.047 805.009 570.67 804.924 570.292ZM862.293 569.018C862.273 568.928 862.271 568.835 862.287 568.744C862.303 568.653 862.336 568.566 862.386 568.488C862.435 568.41 862.5 568.343 862.575 568.289C862.651 568.236 862.736 568.199 862.826 568.179L868.318 566.953C868.698 566.868 869.073 567.107 869.158 567.486C869.243 567.866 869.004 568.241 868.625 568.326L863.133 569.552C863.043 569.572 862.949 569.574 862.858 569.558C862.767 569.542 862.68 569.509 862.602 569.459C862.524 569.41 862.457 569.345 862.404 569.269C862.351 569.194 862.313 569.109 862.293 569.018Z" fill="white" fill-opacity="0.1"/>
<path d="M865.346 569.779L864.733 567.033C864.648 566.653 864.887 566.278 865.266 566.193C865.645 566.109 866.021 566.347 866.106 566.726L866.718 569.472C866.803 569.852 866.565 570.227 866.185 570.312C865.806 570.397 865.43 570.158 865.346 569.779ZM826.143 581.411C826.123 581.321 826.121 581.227 826.137 581.136C826.152 581.045 826.186 580.958 826.236 580.88C826.285 580.802 826.35 580.735 826.425 580.682C826.501 580.629 826.586 580.591 826.676 580.571L832.168 579.345C832.548 579.261 832.923 579.499 833.008 579.879C833.092 580.258 832.854 580.634 832.474 580.718L826.983 581.944C826.893 581.964 826.799 581.966 826.708 581.95C826.617 581.935 826.53 581.901 826.452 581.851C826.374 581.802 826.307 581.737 826.254 581.662C826.201 581.586 826.163 581.501 826.143 581.411Z" fill="white" fill-opacity="0.1"/>
<path d="M829.195 582.171L828.583 579.425C828.498 579.046 828.736 578.67 829.116 578.585C829.495 578.501 829.871 578.739 829.955 579.119L830.568 581.864C830.653 582.244 830.415 582.619 830.035 582.704C829.656 582.789 829.28 582.55 829.195 582.171Z" fill="white" fill-opacity="0.1"/>
<path d="M783.057 517.519C783.037 517.429 783.035 517.336 783.05 517.245C783.066 517.154 783.1 517.067 783.15 516.989C783.199 516.911 783.264 516.843 783.339 516.79C783.415 516.737 783.5 516.7 783.59 516.68L789.082 515.454C789.461 515.369 789.837 515.608 789.922 515.987C790.006 516.367 789.768 516.742 789.388 516.827L783.897 518.053C783.807 518.073 783.713 518.075 783.622 518.059C783.531 518.043 783.444 518.01 783.366 517.96C783.288 517.91 783.221 517.846 783.168 517.77C783.115 517.695 783.077 517.61 783.057 517.519Z" fill="white" fill-opacity="0.1"/>
<path d="M786.109 518.279L785.497 515.533C785.412 515.154 785.65 514.778 786.03 514.694C786.409 514.609 786.785 514.848 786.87 515.227L787.482 517.973C787.567 518.352 787.329 518.728 786.949 518.813C786.57 518.897 786.194 518.659 786.109 518.279Z" fill="white" fill-opacity="0.1"/>
<path d="M853.383 503.265C853.097 501.982 853.328 500.663 854.033 499.553C854.738 498.443 855.833 497.673 857.116 497.387C858.4 497.1 859.719 497.331 860.828 498.036C863.048 499.447 863.754 502.611 862.344 504.831C861.64 505.941 860.545 506.711 859.261 506.997C857.978 507.284 856.66 507.053 855.549 506.348C854.439 505.643 853.67 504.548 853.383 503.265ZM861.621 501.426C861.416 500.509 860.867 499.727 860.074 499.224C859.281 498.72 858.34 498.555 857.422 498.76C856.971 498.86 856.544 499.047 856.166 499.313C855.788 499.579 855.467 499.916 855.22 500.307C854.212 501.893 854.716 504.154 856.303 505.161C857.097 505.663 858.039 505.829 858.955 505.625C859.406 505.525 859.833 505.337 860.211 505.072C860.589 504.806 860.91 504.468 861.157 504.078C861.406 503.688 861.575 503.253 861.654 502.798C861.734 502.343 861.723 501.877 861.621 501.426Z" fill="white" fill-opacity="0.1"/>
<path d="M852.712 499.69C852.641 499.371 852.674 499.07 852.845 498.799C852.895 498.721 852.959 498.654 853.035 498.601C853.111 498.548 853.196 498.51 853.286 498.49C853.376 498.47 853.469 498.467 853.56 498.483C853.651 498.499 853.738 498.533 853.816 498.583C853.955 498.671 854.059 498.804 854.109 498.961C854.159 499.117 854.153 499.286 854.092 499.439C854.215 499.873 855.392 501.249 857.812 502.786C860.231 504.322 861.977 504.802 862.424 504.729C862.536 504.609 862.687 504.531 862.85 504.51C863.013 504.489 863.178 504.526 863.316 504.615C863.394 504.664 863.462 504.729 863.515 504.804C863.568 504.88 863.606 504.965 863.626 505.055C863.646 505.145 863.648 505.239 863.632 505.33C863.616 505.421 863.583 505.507 863.533 505.585C862.456 507.281 857.95 504.54 857.058 503.973C856.308 503.497 853.086 501.365 852.712 499.69Z" fill="white" fill-opacity="0.1"/>
</g>
<path d="M1049.03 108.003C1048.78 108.003 1048.57 107.797 1048.57 107.542C1048.57 107.287 1048.77 107.081 1049.02 107.081H1049.03C1049.29 107.081 1049.49 107.287 1049.49 107.542C1049.49 107.797 1049.29 108.003 1049.03 108.003ZM1026.92 109.846C1026.66 109.846 1026.45 109.64 1026.45 109.385C1026.45 109.13 1026.65 108.924 1026.91 108.924H1026.92C1027.17 108.924 1027.38 109.13 1027.38 109.385C1027.38 109.64 1027.17 109.846 1026.92 109.846ZM1037.05 104.317C1036.8 104.317 1036.59 104.111 1036.59 103.856C1036.59 103.602 1036.79 103.396 1037.04 103.396H1037.05C1037.31 103.396 1037.51 103.602 1037.51 103.856C1037.51 104.111 1037.31 104.317 1037.05 104.317ZM1058.25 104.317C1057.99 104.317 1057.78 104.111 1057.78 103.856C1057.78 103.602 1057.98 103.396 1058.24 103.396H1058.25C1058.5 103.396 1058.71 103.602 1058.71 103.856C1058.71 104.111 1058.5 104.317 1058.25 104.317ZM1064.7 120.903C1064.44 120.903 1064.23 120.697 1064.23 120.442C1064.23 120.188 1064.43 119.982 1064.69 119.982H1064.7C1064.95 119.982 1065.16 120.188 1065.16 120.442C1065.16 120.697 1064.95 120.903 1064.7 120.903ZM1060.09 127.353C1059.84 127.353 1059.62 127.147 1059.62 126.893C1059.62 126.638 1059.83 126.432 1060.08 126.432H1060.09C1060.34 126.432 1060.55 126.638 1060.55 126.893C1060.55 127.147 1060.34 127.353 1060.09 127.353ZM1012.17 130.118C1011.92 130.118 1011.71 129.912 1011.71 129.657C1011.71 129.402 1011.91 129.196 1012.16 129.196H1012.17C1012.43 129.196 1012.63 129.402 1012.63 129.657C1012.63 129.912 1012.43 130.118 1012.17 130.118ZM1015.86 140.254C1015.61 140.254 1015.39 140.048 1015.39 139.793C1015.39 139.538 1015.6 139.332 1015.85 139.332H1015.86C1016.11 139.332 1016.32 139.538 1016.32 139.793C1016.32 140.048 1016.11 140.254 1015.86 140.254ZM1008.49 147.625C1008.23 147.625 1008.02 147.419 1008.02 147.165C1008.02 146.91 1008.22 146.704 1008.48 146.704H1008.49C1008.74 146.704 1008.95 146.91 1008.95 147.165C1008.95 147.419 1008.74 147.625 1008.49 147.625ZM1061.01 148.547C1060.76 148.547 1060.55 148.341 1060.55 148.086C1060.55 147.831 1060.75 147.625 1061 147.625H1061.01C1061.07 147.625 1061.13 147.637 1061.19 147.66C1061.24 147.683 1061.29 147.717 1061.34 147.76C1061.38 147.803 1061.41 147.854 1061.44 147.91C1061.46 147.966 1061.47 148.026 1061.47 148.086C1061.47 148.147 1061.46 148.207 1061.44 148.262C1061.41 148.318 1061.38 148.369 1061.34 148.412C1061.29 148.455 1061.24 148.489 1061.19 148.512C1061.13 148.535 1061.07 148.547 1061.01 148.547ZM1022.31 151.311C1022.06 151.311 1021.84 151.105 1021.84 150.85C1021.84 150.596 1022.05 150.39 1022.3 150.39H1022.31C1022.56 150.39 1022.77 150.596 1022.77 150.85C1022.77 151.105 1022.56 151.311 1022.31 151.311ZM1030.68 159.604C1030.43 159.604 1030.21 159.398 1030.21 159.144C1030.21 158.889 1030.42 158.683 1030.67 158.683H1030.68C1030.74 158.683 1030.8 158.695 1030.86 158.718C1030.91 158.741 1030.96 158.775 1031.01 158.818C1031.05 158.861 1031.08 158.911 1031.11 158.967C1031.13 159.023 1031.14 159.083 1031.14 159.144C1031.14 159.204 1031.13 159.264 1031.11 159.32C1031.08 159.376 1031.05 159.427 1031.01 159.469C1030.96 159.512 1030.91 159.546 1030.86 159.569C1030.8 159.592 1030.74 159.604 1030.68 159.604ZM1038.9 154.997C1038.64 154.997 1038.43 154.791 1038.43 154.536C1038.43 154.282 1038.63 154.075 1038.89 154.075H1038.9C1039.15 154.075 1039.36 154.282 1039.36 154.536C1039.36 154.791 1039.15 154.997 1038.9 154.997ZM1066.54 158.683C1066.29 158.683 1066.07 158.477 1066.07 158.222C1066.07 157.967 1066.28 157.761 1066.53 157.761H1066.54C1066.79 157.761 1067 157.967 1067 158.222C1067 158.477 1066.79 158.683 1066.54 158.683ZM1050.87 156.84C1050.62 156.84 1050.41 156.634 1050.41 156.379C1050.41 156.124 1050.61 155.918 1050.87 155.918H1050.87C1051.13 155.918 1051.34 156.124 1051.34 156.379C1051.34 156.634 1051.13 156.84 1050.87 156.84ZM1049.03 154.075C1048.78 154.075 1048.57 153.869 1048.57 153.615C1048.57 153.36 1048.77 153.154 1049.02 153.154H1049.03C1049.29 153.154 1049.49 153.36 1049.49 153.615C1049.49 153.869 1049.29 154.075 1049.03 154.075Z" fill="white" fill-opacity="0.3"/>
<path d="M1051.31 158.683C1048.77 158.683 1046.7 156.616 1046.7 154.075C1046.7 151.535 1048.77 149.468 1051.31 149.468C1053.85 149.468 1055.92 151.535 1055.92 154.075C1055.92 156.616 1053.85 158.683 1051.31 158.683ZM1051.31 150.39C1049.28 150.39 1047.62 152.043 1047.62 154.075C1047.62 156.108 1049.28 157.761 1051.31 157.761C1053.34 157.761 1054.99 156.108 1054.99 154.075C1054.99 152.043 1053.34 150.39 1051.31 150.39Z" fill="white" fill-opacity="0.3"/>
<path d="M1052.69 154.075C1051.93 154.075 1051.31 153.455 1051.31 152.693C1051.31 151.931 1051.93 151.311 1052.69 151.311C1053.45 151.311 1054.07 151.931 1054.07 152.693C1054.07 153.455 1053.45 154.075 1052.69 154.075ZM1052.69 152.233C1052.57 152.233 1052.45 152.281 1052.36 152.368C1052.28 152.454 1052.23 152.571 1052.23 152.693C1052.23 152.815 1052.28 152.933 1052.36 153.019C1052.45 153.105 1052.57 153.154 1052.69 153.154C1052.94 153.154 1053.15 152.947 1053.15 152.693C1053.15 152.44 1052.94 152.233 1052.69 152.233ZM1060.06 115.374C1060 115.374 1059.94 115.363 1059.89 115.339C1059.83 115.316 1059.78 115.282 1059.74 115.24C1059.69 115.197 1059.66 115.146 1059.64 115.09C1059.61 115.034 1059.6 114.974 1059.6 114.914V111.228C1059.6 110.973 1059.81 110.767 1060.06 110.767C1060.32 110.767 1060.52 110.973 1060.52 111.228V114.914C1060.52 114.974 1060.51 115.034 1060.49 115.09C1060.46 115.146 1060.43 115.197 1060.39 115.24C1060.35 115.282 1060.29 115.316 1060.24 115.339C1060.18 115.363 1060.12 115.374 1060.06 115.374Z" fill="white" fill-opacity="0.3"/>
<path d="M1060.98 113.532H1059.14C1058.89 113.532 1058.68 113.326 1058.68 113.071C1058.68 112.816 1058.89 112.61 1059.14 112.61H1060.98C1061.24 112.61 1061.44 112.816 1061.44 113.071C1061.44 113.326 1061.24 113.532 1060.98 113.532ZM1062.83 140.254C1062.77 140.254 1062.71 140.242 1062.65 140.219C1062.59 140.196 1062.54 140.162 1062.5 140.119C1062.46 140.076 1062.42 140.025 1062.4 139.97C1062.38 139.914 1062.37 139.854 1062.37 139.793V136.107C1062.37 135.853 1062.57 135.647 1062.83 135.647C1063.08 135.647 1063.29 135.853 1063.29 136.107V139.793C1063.29 139.854 1063.28 139.914 1063.25 139.97C1063.23 140.025 1063.2 140.076 1063.15 140.119C1063.11 140.162 1063.06 140.196 1063 140.219C1062.95 140.242 1062.89 140.254 1062.83 140.254Z" fill="white" fill-opacity="0.3"/>
<path d="M1063.75 138.411H1061.91C1061.65 138.411 1061.44 138.205 1061.44 137.95C1061.44 137.696 1061.65 137.49 1061.91 137.49H1063.75C1064 137.49 1064.21 137.696 1064.21 137.95C1064.21 138.205 1064 138.411 1063.75 138.411Z" fill="white" fill-opacity="0.3"/>
<path d="M1015.83 158.683C1015.77 158.683 1015.71 158.671 1015.66 158.648C1015.6 158.625 1015.55 158.591 1015.51 158.548C1015.46 158.505 1015.43 158.454 1015.41 158.399C1015.38 158.343 1015.37 158.283 1015.37 158.222V154.536C1015.37 154.282 1015.58 154.076 1015.83 154.076C1016.09 154.076 1016.29 154.282 1016.29 154.536V158.222C1016.29 158.283 1016.28 158.343 1016.26 158.399C1016.24 158.454 1016.2 158.505 1016.16 158.548C1016.12 158.591 1016.06 158.625 1016.01 158.648C1015.95 158.671 1015.89 158.683 1015.83 158.683Z" fill="white" fill-opacity="0.3"/>
<path d="M1016.75 156.84H1014.91C1014.66 156.84 1014.45 156.634 1014.45 156.379C1014.45 156.124 1014.66 155.918 1014.91 155.918H1016.75C1017.01 155.918 1017.21 156.124 1017.21 156.379C1017.21 156.634 1017.01 156.84 1016.75 156.84Z" fill="white" fill-opacity="0.3"/>
<path d="M1009.38 121.825C1009.32 121.825 1009.26 121.813 1009.21 121.79C1009.15 121.766 1009.1 121.732 1009.06 121.69C1009.01 121.647 1008.98 121.596 1008.96 121.54C1008.93 121.484 1008.92 121.424 1008.92 121.364V117.678C1008.92 117.617 1008.93 117.558 1008.96 117.502C1008.98 117.446 1009.01 117.395 1009.06 117.352C1009.1 117.309 1009.15 117.275 1009.21 117.252C1009.26 117.229 1009.32 117.217 1009.38 117.217C1009.44 117.217 1009.5 117.229 1009.56 117.252C1009.61 117.275 1009.67 117.309 1009.71 117.352C1009.75 117.395 1009.78 117.446 1009.81 117.502C1009.83 117.558 1009.84 117.617 1009.84 117.678V121.364C1009.84 121.424 1009.83 121.484 1009.81 121.54C1009.78 121.596 1009.75 121.647 1009.71 121.69C1009.67 121.732 1009.61 121.766 1009.56 121.79C1009.5 121.813 1009.44 121.825 1009.38 121.825Z" fill="white" fill-opacity="0.3"/>
<path d="M1010.3 119.982H1008.46C1008.21 119.982 1008 119.776 1008 119.521C1008 119.267 1008.21 119.061 1008.46 119.061H1010.3C1010.56 119.061 1010.76 119.267 1010.76 119.521C1010.76 119.776 1010.56 119.982 1010.3 119.982Z" fill="white" fill-opacity="0.3"/>
<path d="M1016.75 111.689C1015.89 111.689 1015.08 111.353 1014.47 110.744C1013.86 110.135 1013.53 109.325 1013.53 108.464C1013.53 107.602 1013.86 106.792 1014.47 106.183C1015.69 104.965 1017.82 104.965 1019.03 106.183C1019.64 106.792 1019.98 107.602 1019.98 108.464C1019.98 109.325 1019.64 110.135 1019.03 110.744C1018.42 111.353 1017.61 111.689 1016.75 111.689ZM1016.75 106.16C1016.14 106.16 1015.56 106.399 1015.13 106.835C1014.69 107.269 1014.45 107.848 1014.45 108.464C1014.45 108.766 1014.51 109.066 1014.62 109.346C1014.74 109.625 1014.91 109.879 1015.13 110.092C1016 110.963 1017.51 110.963 1018.38 110.092C1018.82 109.657 1019.06 109.078 1019.06 108.464C1019.06 108.161 1019 107.861 1018.88 107.582C1018.77 107.302 1018.6 107.048 1018.38 106.835C1018.17 106.62 1017.92 106.45 1017.64 106.334C1017.36 106.218 1017.06 106.159 1016.75 106.16Z" fill="white" fill-opacity="0.3"/>
<path d="M1014.37 111.608C1014.16 111.608 1013.97 111.544 1013.82 111.395C1013.78 111.353 1013.75 111.302 1013.72 111.246C1013.7 111.19 1013.69 111.13 1013.69 111.07C1013.69 111.009 1013.7 110.949 1013.72 110.893C1013.75 110.837 1013.78 110.787 1013.82 110.744C1013.9 110.668 1014 110.621 1014.11 110.611C1014.21 110.601 1014.32 110.629 1014.41 110.69C1014.7 110.673 1015.75 110.117 1017.08 108.789C1018.41 107.462 1018.96 106.414 1018.98 106.118C1018.92 106.029 1018.89 105.922 1018.9 105.815C1018.91 105.707 1018.96 105.607 1019.03 105.531C1019.08 105.488 1019.13 105.454 1019.18 105.431C1019.24 105.408 1019.3 105.396 1019.36 105.396C1019.42 105.396 1019.48 105.408 1019.54 105.431C1019.59 105.454 1019.64 105.488 1019.69 105.531C1020.62 106.461 1018.22 108.951 1017.73 109.441C1017.32 109.852 1015.5 111.608 1014.37 111.608Z" fill="white" fill-opacity="0.3"/>
<path d="M1022.28 122.814C1022.2 122.814 1022.12 122.793 1022.05 122.753C1022 122.723 1021.95 122.683 1021.92 122.636C1021.88 122.588 1021.85 122.533 1021.84 122.475C1021.82 122.416 1021.82 122.355 1021.82 122.295C1021.83 122.235 1021.85 122.178 1021.88 122.125C1025.08 116.54 1031.06 113.071 1037.49 113.071C1041.24 113.071 1044.83 114.216 1047.88 116.383C1047.93 116.418 1047.97 116.463 1048.01 116.514C1048.04 116.565 1048.06 116.622 1048.07 116.682C1048.08 116.742 1048.08 116.803 1048.06 116.862C1048.05 116.921 1048.03 116.976 1047.99 117.026C1047.92 117.125 1047.81 117.192 1047.69 117.212C1047.57 117.232 1047.45 117.204 1047.35 117.134C1044.46 115.079 1041.05 113.992 1037.49 113.992C1031.39 113.992 1025.72 117.284 1022.68 122.582C1022.64 122.653 1022.58 122.712 1022.51 122.752C1022.44 122.793 1022.36 122.815 1022.28 122.814ZM1030.58 147.589C1030.51 147.589 1030.45 147.577 1030.39 147.552C1027.16 146.165 1024.41 143.862 1022.48 140.927C1020.55 137.992 1019.52 134.554 1019.52 131.039C1019.52 129.268 1019.78 127.518 1020.28 125.838C1020.36 125.595 1020.61 125.457 1020.86 125.53C1020.91 125.548 1020.97 125.576 1021.01 125.615C1021.06 125.653 1021.1 125.7 1021.13 125.753C1021.16 125.807 1021.18 125.865 1021.18 125.925C1021.19 125.986 1021.18 126.046 1021.16 126.104C1020.68 127.698 1020.44 129.358 1020.44 131.039C1020.44 134.374 1021.41 137.635 1023.25 140.42C1025.08 143.205 1027.69 145.39 1030.76 146.706C1030.87 146.754 1030.96 146.844 1031 146.958C1031.05 147.071 1031.05 147.198 1031 147.31C1030.96 147.393 1030.9 147.464 1030.83 147.513C1030.75 147.563 1030.67 147.589 1030.58 147.589ZM1037.49 149.008C1036.06 149.008 1034.63 148.838 1033.24 148.502C1033.12 148.473 1033.02 148.398 1032.95 148.293C1032.89 148.189 1032.87 148.064 1032.9 147.945C1032.96 147.697 1033.21 147.552 1033.46 147.606C1034.78 147.925 1036.13 148.086 1037.49 148.086C1046.89 148.086 1054.53 140.439 1054.53 131.039C1054.53 126.518 1052.78 122.258 1049.6 119.044C1049.51 118.957 1049.46 118.84 1049.46 118.718C1049.46 118.596 1049.51 118.479 1049.6 118.393C1049.78 118.213 1050.07 118.216 1050.25 118.396C1053.61 121.784 1055.45 126.274 1055.45 131.039C1055.45 140.947 1047.39 149.008 1037.49 149.008Z" fill="white" fill-opacity="0.3"/>
<path d="M1042.45 144.526C1042.35 144.526 1042.25 144.522 1042.15 144.513C1041.19 144.431 1040.52 143.656 1040.16 142.21C1039.92 141.251 1039.85 140.275 1039.77 139.331C1039.69 138.295 1039.62 137.318 1039.35 136.347C1039.19 135.776 1038.94 135.37 1038.58 135.102C1038.53 135.066 1038.49 135.021 1038.46 134.969C1038.43 134.917 1038.41 134.86 1038.4 134.8C1038.39 134.74 1038.39 134.679 1038.41 134.62C1038.42 134.562 1038.45 134.507 1038.49 134.458C1038.56 134.36 1038.67 134.295 1038.79 134.277C1038.91 134.259 1039.03 134.29 1039.13 134.363C1039.66 134.758 1040.03 135.326 1040.24 136.101C1040.53 137.157 1040.61 138.226 1040.69 139.26C1040.77 140.208 1040.84 141.104 1041.06 141.989C1041.31 143.009 1041.7 143.55 1042.23 143.595C1043.51 143.703 1044.38 142.828 1045.23 141.839C1045.47 141.562 1045.73 141.298 1045.99 141.033C1046.51 140.5 1047 139.996 1047.33 139.394C1047.71 138.703 1047.85 137.935 1048 137.122C1048.17 136.234 1048.34 135.316 1048.84 134.46L1049.03 134.135C1050.53 131.562 1050.98 130.484 1051.05 130.052C1048.6 130.182 1047.17 129.237 1046.64 128.288C1046.34 127.752 1046.33 127.212 1046.6 126.844C1047.14 126.097 1048.29 126.405 1049.4 126.703C1050.09 126.887 1051.02 127.137 1051.33 126.931C1051.36 126.912 1051.43 126.862 1051.46 126.647C1051.56 125.935 1053.24 125.114 1054.03 125.012C1054.28 124.975 1054.51 125.158 1054.54 125.41C1054.56 125.532 1054.53 125.654 1054.45 125.751C1054.38 125.848 1054.27 125.911 1054.14 125.927C1053.5 126.009 1052.49 126.621 1052.35 126.842C1052.32 127.182 1052.14 127.495 1051.84 127.697C1051.19 128.136 1050.21 127.873 1049.16 127.593C1048.55 127.428 1047.52 127.15 1047.34 127.39C1047.32 127.424 1047.31 127.608 1047.47 127.882C1047.89 128.585 1049.09 129.286 1051.18 129.12C1051.47 129.098 1051.72 129.214 1051.85 129.437C1052.24 130.048 1051.74 131.302 1049.82 134.598L1049.64 134.921C1049.22 135.642 1049.07 136.444 1048.91 137.292C1048.75 138.14 1048.59 139.017 1048.14 139.836C1047.75 140.549 1047.19 141.122 1046.65 141.677C1046.4 141.928 1046.16 142.178 1045.93 142.44C1045.05 143.457 1044 144.526 1042.45 144.526ZM1035.18 134.601H1035.17C1032.66 134.532 1031.05 132.898 1030.95 130.337C1030.93 129.743 1030.96 129.174 1031.04 128.645C1031.05 128.585 1031.07 128.527 1031.1 128.475C1031.13 128.423 1031.17 128.378 1031.22 128.342C1031.27 128.306 1031.33 128.281 1031.39 128.266C1031.44 128.252 1031.51 128.249 1031.57 128.259C1031.63 128.268 1031.68 128.289 1031.73 128.32C1031.79 128.351 1031.83 128.392 1031.87 128.441C1031.9 128.49 1031.93 128.545 1031.94 128.604C1031.96 128.663 1031.96 128.724 1031.95 128.783C1031.88 129.256 1031.85 129.767 1031.87 130.302C1031.95 132.361 1033.19 133.625 1035.19 133.68C1035.26 133.679 1035.32 133.69 1035.37 133.714C1035.43 133.737 1035.48 133.771 1035.53 133.815C1035.57 133.858 1035.6 133.91 1035.63 133.967C1035.65 134.024 1035.66 134.085 1035.66 134.146C1035.66 134.208 1035.65 134.268 1035.62 134.325C1035.6 134.381 1035.56 134.432 1035.52 134.474C1035.47 134.517 1035.42 134.55 1035.36 134.572C1035.31 134.593 1035.24 134.603 1035.18 134.601ZM1033.34 125.77C1033.21 125.77 1033.07 125.712 1032.98 125.602C1032.91 125.507 1032.87 125.386 1032.88 125.264C1032.89 125.142 1032.95 125.03 1033.05 124.953C1034.51 123.759 1036.21 123.595 1036.63 123.669C1038.81 124.048 1040.04 124.34 1040.49 124.584C1040.61 124.653 1040.74 124.712 1040.87 124.76C1040.93 124.781 1040.98 124.813 1041.03 124.854C1041.07 124.895 1041.11 124.944 1041.13 124.999C1041.16 125.054 1041.17 125.114 1041.17 125.174C1041.18 125.235 1041.17 125.295 1041.15 125.352C1041.06 125.592 1040.79 125.713 1040.55 125.626C1040.38 125.561 1040.21 125.483 1040.04 125.392C1039.85 125.287 1039.12 125.038 1036.47 124.577C1036.3 124.554 1034.87 124.646 1033.63 125.665C1033.55 125.733 1033.45 125.77 1033.34 125.77ZM1042.55 123.325C1042.5 123.325 1042.45 123.316 1042.4 123.3C1040.79 122.742 1038.35 122.236 1037.25 122.157C1037.08 122.136 1036.82 122.194 1036.55 122.242C1035.88 122.362 1035.03 122.513 1034.54 121.978C1034.09 121.474 1034.17 120.71 1034.76 119.929C1036.25 117.967 1038.44 117.101 1040.55 116.263C1041.28 115.976 1042.03 115.679 1042.73 115.344C1042.81 115.216 1043 114.875 1043.11 114.483C1043.18 114.239 1043.44 114.101 1043.68 114.169C1043.8 114.203 1043.9 114.283 1043.96 114.39C1044.01 114.497 1044.03 114.623 1043.99 114.74C1043.89 115.1 1043.55 115.948 1043.23 116.124C1042.45 116.5 1041.66 116.815 1040.89 117.12C1038.8 117.947 1036.83 118.729 1035.49 120.484C1035.26 120.8 1035.09 121.204 1035.23 121.359C1035.37 121.516 1036.01 121.403 1036.39 121.335C1036.72 121.275 1037.04 121.216 1037.31 121.237C1038.48 121.321 1041.03 121.848 1042.7 122.429C1042.82 122.469 1042.91 122.553 1042.97 122.663C1043.02 122.773 1043.03 122.9 1042.99 123.016C1042.96 123.106 1042.9 123.184 1042.82 123.24C1042.74 123.295 1042.65 123.325 1042.55 123.325ZM1025.11 143.686L1024.95 143.254L1024.88 142.799L1024.95 143.255L1024.54 143.053C1024.73 142.567 1025.72 138.333 1024.15 135.057C1023.31 133.299 1021.86 132.096 1019.84 131.48L1020.11 130.599C1024.76 132.018 1025.84 135.916 1025.93 138.937C1025.97 140.239 1025.7 143.466 1025.11 143.686ZM1034.26 143.018C1032.99 143.018 1031.96 141.985 1031.96 140.715C1031.96 139.444 1032.99 138.411 1034.26 138.411C1035.53 138.411 1036.57 139.444 1036.57 140.715C1036.57 141.985 1035.53 143.018 1034.26 143.018ZM1034.26 139.332C1033.5 139.332 1032.88 139.953 1032.88 140.715C1032.88 141.477 1033.5 142.097 1034.26 142.097C1035.02 142.097 1035.64 141.477 1035.64 140.715C1035.64 139.953 1035.02 139.332 1034.26 139.332Z" fill="white" fill-opacity="0.3"/>
<path d="M1025.97 127.353C1024.7 127.353 1023.66 126.32 1023.66 125.05C1023.66 123.779 1024.7 122.746 1025.97 122.746C1027.24 122.746 1028.27 123.779 1028.27 125.05C1028.27 126.32 1027.24 127.353 1025.97 127.353ZM1025.97 123.667C1025.21 123.667 1024.59 124.287 1024.59 125.05C1024.59 125.812 1025.21 126.432 1025.97 126.432C1026.73 126.432 1027.35 125.812 1027.35 125.05C1027.35 124.287 1026.73 123.667 1025.97 123.667Z" fill="white" fill-opacity="0.3"/>
<path d="M1039.79 131.961C1038.52 131.961 1037.49 130.928 1037.49 129.657C1037.49 128.387 1038.52 127.354 1039.79 127.354C1041.06 127.354 1042.09 128.387 1042.09 129.657C1042.09 130.928 1041.06 131.961 1039.79 131.961ZM1039.79 128.275C1039.03 128.275 1038.41 128.895 1038.41 129.657C1038.41 130.419 1039.03 131.04 1039.79 131.04C1040.55 131.04 1041.17 130.42 1041.17 129.657C1041.17 128.895 1040.55 128.275 1039.79 128.275Z" fill="white" fill-opacity="0.3"/>
<path d="M1031.5 149.468C1031.43 149.468 1031.36 149.453 1031.3 149.423C1031.23 149.392 1031.18 149.349 1031.14 149.294C1031.09 149.24 1031.06 149.177 1031.05 149.109C1031.03 149.042 1031.03 148.972 1031.05 148.904C1031.56 146.671 1032.22 144.418 1033.01 142.209C1033.09 141.969 1033.35 141.84 1033.59 141.929C1033.65 141.949 1033.7 141.98 1033.75 142.021C1033.79 142.061 1033.83 142.11 1033.86 142.165C1033.88 142.219 1033.9 142.279 1033.9 142.339C1033.9 142.399 1033.89 142.46 1033.87 142.517C1033.1 144.694 1032.45 146.912 1031.95 149.111C1031.92 149.212 1031.87 149.303 1031.78 149.368C1031.7 149.433 1031.6 149.468 1031.5 149.468Z" fill="white" fill-opacity="0.3"/>
<path d="M1034.77 139.405C1034.71 139.404 1034.65 139.392 1034.59 139.369C1034.48 139.321 1034.39 139.231 1034.34 139.117C1034.3 139.004 1034.3 138.877 1034.35 138.765C1035.47 136.104 1036.8 133.458 1038.29 130.902C1038.35 130.797 1038.46 130.72 1038.57 130.689C1038.69 130.658 1038.82 130.676 1038.92 130.737C1039.03 130.799 1039.1 130.9 1039.14 131.018C1039.17 131.137 1039.15 131.262 1039.09 131.368C1037.61 133.889 1036.3 136.499 1035.19 139.123C1035.16 139.207 1035.1 139.278 1035.02 139.328C1034.95 139.378 1034.86 139.405 1034.77 139.405Z" fill="white" fill-opacity="0.3"/>
<path d="M1040.63 128.477C1040.54 128.477 1040.45 128.453 1040.38 128.402C1040.27 128.335 1040.2 128.23 1040.18 128.11C1040.15 127.99 1040.18 127.866 1040.24 127.764C1044.97 120.579 1049.57 116.454 1049.62 116.412C1049.71 116.334 1049.83 116.295 1049.95 116.304C1050.07 116.312 1050.18 116.368 1050.26 116.458C1050.34 116.548 1050.38 116.666 1050.38 116.786C1050.37 116.906 1050.32 117.02 1050.23 117.101C1050.19 117.141 1045.67 121.194 1041.01 128.27C1040.97 128.334 1040.91 128.386 1040.85 128.422C1040.78 128.459 1040.7 128.478 1040.63 128.477Z" fill="white" fill-opacity="0.3"/>
<path d="M1024.15 125.215C1024.12 125.215 1024.09 125.213 1024.06 125.206C1022.8 124.955 1021.56 124.746 1020.38 124.584C1020.26 124.568 1020.15 124.504 1020.07 124.407C1020 124.31 1019.97 124.187 1019.98 124.066C1020.02 123.814 1020.25 123.63 1020.5 123.672C1021.71 123.836 1022.97 124.048 1024.24 124.303C1024.36 124.327 1024.46 124.397 1024.53 124.499C1024.6 124.6 1024.62 124.725 1024.6 124.845C1024.58 124.949 1024.52 125.043 1024.44 125.111C1024.36 125.178 1024.26 125.215 1024.15 125.215Z" fill="white" fill-opacity="0.3"/>
<path d="M1038.1 129.41C1038.04 129.41 1037.98 129.399 1037.93 129.376C1036.04 128.623 1032.2 127.185 1027.62 126.02C1027.56 126.005 1027.51 125.979 1027.46 125.943C1027.41 125.906 1027.37 125.861 1027.34 125.809C1027.31 125.757 1027.29 125.7 1027.28 125.64C1027.27 125.58 1027.28 125.519 1027.29 125.46C1027.3 125.401 1027.33 125.346 1027.37 125.297C1027.4 125.248 1027.45 125.207 1027.5 125.176C1027.55 125.146 1027.61 125.125 1027.67 125.117C1027.73 125.108 1027.79 125.112 1027.85 125.127C1032.48 126.306 1036.37 127.759 1038.27 128.522C1038.38 128.567 1038.47 128.655 1038.52 128.768C1038.57 128.88 1038.57 129.007 1038.53 129.12C1038.49 129.205 1038.43 129.279 1038.36 129.33C1038.28 129.382 1038.19 129.41 1038.1 129.41Z" fill="white" fill-opacity="0.3"/>
<path d="M613.073 264.94C612.786 263.657 613.017 262.339 613.722 261.228C614.427 260.118 615.522 259.349 616.805 259.062C618.09 258.775 619.408 259.006 620.517 259.712C622.738 261.122 623.444 264.286 622.034 266.507C621.33 267.617 620.235 268.386 618.95 268.673C617.667 268.959 616.349 268.728 615.239 268.023C614.128 267.318 613.359 266.223 613.073 264.94ZM621.31 263.102C621.106 262.184 620.556 261.402 619.763 260.899C618.971 260.395 618.029 260.231 617.112 260.435C616.661 260.535 616.234 260.723 615.856 260.988C615.478 261.254 615.156 261.592 614.909 261.982C613.901 263.569 614.405 265.829 615.993 266.836C616.786 267.339 617.728 267.504 618.644 267.3C619.095 267.2 619.522 267.012 619.9 266.747C620.278 266.481 620.6 266.143 620.846 265.753C621.095 265.364 621.264 264.929 621.344 264.474C621.423 264.019 621.412 263.552 621.31 263.102Z" fill="white" fill-opacity="0.1"/>
<path d="M612.401 261.366C612.33 261.047 612.363 260.745 612.535 260.474C612.584 260.396 612.649 260.329 612.724 260.276C612.8 260.223 612.885 260.185 612.975 260.165C613.065 260.145 613.159 260.143 613.25 260.159C613.341 260.175 613.428 260.208 613.505 260.258C613.644 260.346 613.748 260.48 613.798 260.636C613.848 260.793 613.842 260.962 613.781 261.114C613.905 261.548 615.082 262.924 617.501 264.462C619.92 265.998 621.667 266.478 622.114 266.405C622.225 266.284 622.376 266.206 622.539 266.185C622.702 266.164 622.867 266.201 623.006 266.29C623.084 266.339 623.151 266.404 623.204 266.479C623.257 266.555 623.295 266.64 623.315 266.73C623.335 266.821 623.337 266.914 623.321 267.005C623.306 267.096 623.272 267.183 623.222 267.261C622.145 268.957 617.639 266.215 616.747 265.649C615.997 265.173 612.775 263.04 612.401 261.366Z" fill="white" fill-opacity="0.1"/>
<g clip-path="url(#clip3_430_1150)">
<path d="M63.6523 617.288C63.2498 617.148 63.0178 616.734 63.1455 616.367C63.2732 616 63.6962 615.814 64.1001 615.954L64.1144 615.959C64.5183 616.1 64.7417 616.51 64.614 616.878C64.4863 617.245 64.0562 617.428 63.6523 617.288ZM27.654 607.747C27.2516 607.607 27.0195 607.194 27.1473 606.826C27.275 606.459 27.6979 606.273 28.1018 606.414L28.1161 606.419C28.52 606.559 28.7435 606.97 28.6157 607.337C28.488 607.704 28.0579 607.888 27.654 607.747ZM46.5022 605.366C46.0997 605.226 45.8677 604.812 45.9954 604.445C46.1231 604.078 46.5461 603.892 46.95 604.032L46.9643 604.037C47.3682 604.178 47.5916 604.589 47.4639 604.956C47.3362 605.323 46.9061 605.507 46.5022 605.366ZM80.1149 617.056C79.7124 616.916 79.4804 616.502 79.6081 616.135C79.7358 615.768 80.1588 615.582 80.5627 615.722L80.577 615.727C80.9807 615.867 81.2043 616.278 81.0766 616.646C80.9489 617.013 80.5186 617.196 80.1149 617.056ZM82.0275 644.529C81.6249 644.389 81.3929 643.976 81.5206 643.608C81.6483 643.241 82.0713 643.055 82.4753 643.196L82.4896 643.201C82.8933 643.341 83.117 643.752 82.9893 644.119C82.8615 644.486 82.4313 644.67 82.0275 644.529ZM71.4856 651.289C71.0832 651.149 70.8511 650.735 70.9788 650.368C71.1065 650.001 71.5295 649.815 71.9334 649.955L71.9477 649.96C72.3516 650.101 72.575 650.511 72.4473 650.879C72.3196 651.246 71.8895 651.429 71.4856 651.289ZM-5.89437 628.846C-6.29681 628.706 -6.52879 628.292 -6.40109 627.925C-6.27338 627.558 -5.85041 627.372 -5.44651 627.512L-5.43225 627.517C-5.02835 627.658 -4.80489 628.068 -4.9326 628.435C-5.06031 628.803 -5.49046 628.986 -5.89437 628.846ZM-5.13157 645.494C-5.53401 645.354 -5.76605 644.94 -5.63835 644.573C-5.51064 644.206 -5.08767 644.02 -4.68376 644.16L-4.66951 644.165C-4.26561 644.306 -4.04215 644.717 -4.16986 645.084C-4.29757 645.451 -4.72767 645.634 -5.13157 645.494ZM-20.5196 652.057C-20.9221 651.917 -21.1541 651.504 -21.0264 651.136C-20.8987 650.769 -20.4757 650.583 -20.0718 650.724L-20.0576 650.729C-19.6537 650.869 -19.4302 651.28 -19.5579 651.647C-19.6856 652.014 -20.1157 652.198 -20.5196 652.057ZM62.3192 682.356C61.9169 682.216 61.6847 681.803 61.8124 681.435C61.9401 681.068 62.3633 680.882 62.767 681.023L62.7813 681.027C62.8773 681.061 62.9663 681.111 63.0434 681.175C63.1205 681.239 63.184 681.316 63.2304 681.402C63.2768 681.487 63.3052 681.579 63.3138 681.672C63.3225 681.766 63.3113 681.859 63.2809 681.946C63.2507 682.033 63.2018 682.113 63.137 682.181C63.0723 682.249 62.993 682.303 62.9037 682.341C62.8143 682.38 62.7167 682.4 62.6164 682.403C62.5161 682.406 62.4151 682.39 62.3192 682.356ZM-0.446502 664.996C-0.848942 664.856 -1.08093 664.442 -0.953223 664.075C-0.825515 663.708 -0.402543 663.522 0.00135879 663.662L0.0156147 663.667C0.419517 663.808 0.64297 664.218 0.515263 664.585C0.387555 664.953 -0.0426 665.136 -0.446502 664.996ZM8.6702 681.571C8.2663 681.43 8.03578 681.017 8.16343 680.65C8.29113 680.283 8.7141 680.097 9.11801 680.237L9.13226 680.242C9.22826 680.275 9.31735 680.326 9.39443 680.39C9.47151 680.454 9.53507 680.531 9.58147 680.616C9.62788 680.701 9.65622 680.793 9.66488 680.887C9.67353 680.98 9.66233 681.073 9.63191 681.16C9.60162 681.248 9.5527 681.328 9.48796 681.395C9.42322 681.463 9.34393 681.518 9.25461 681.556C9.1653 681.594 9.06771 681.615 8.96743 681.617C8.86716 681.62 8.76615 681.604 8.6702 681.571ZM24.0106 679.459C23.6084 679.319 23.3761 678.905 23.5039 678.538C23.6316 678.171 24.0547 677.985 24.4584 678.125L24.4727 678.13C24.8766 678.271 25.1 678.681 24.9723 679.048C24.8446 679.416 24.4145 679.599 24.0106 679.459ZM66.005 700.021C65.6026 699.881 65.3706 699.467 65.4983 699.1C65.626 698.733 66.049 698.547 66.4529 698.687L66.4671 698.692C66.871 698.833 67.0945 699.244 66.9668 699.611C66.839 699.978 66.4089 700.162 66.005 700.021ZM42.085 688.723C41.6826 688.583 41.4505 688.17 41.5783 687.802C41.706 687.435 42.1289 687.249 42.5328 687.39L42.5471 687.395C42.9508 687.535 43.1744 687.946 43.0467 688.313C42.919 688.68 42.4887 688.864 42.085 688.723ZM40.5484 683.721C40.1459 683.581 39.9139 683.167 40.0416 682.8C40.1693 682.433 40.5923 682.247 40.9962 682.387L41.0104 682.392C41.4143 682.533 41.6378 682.943 41.5101 683.311C41.3824 683.678 40.9523 683.861 40.5484 683.721Z" fill="white" fill-opacity="0.1"/>
<path d="M41.8487 691.62C37.8197 690.219 35.5781 686.098 36.8519 682.435C38.1258 678.772 42.4407 676.932 46.4694 678.333C50.4982 679.734 52.7399 683.855 51.4661 687.518C50.1922 691.18 45.8777 693.021 41.8487 691.62ZM46.0074 679.662C42.7834 678.54 39.3329 680.012 38.3135 682.943C37.2942 685.874 39.087 689.17 42.3109 690.291C45.5335 691.412 48.9854 689.94 50.0048 687.009C51.0241 684.078 49.2301 680.782 46.0074 679.662Z" fill="white" fill-opacity="0.1"/>
<path d="M46.3512 685.739C45.1424 685.318 44.47 684.082 44.8522 682.983C45.2344 681.884 46.5286 681.332 47.7374 681.753C48.9461 682.173 49.6185 683.409 49.2363 684.508C48.8541 685.607 47.5601 686.159 46.3512 685.739ZM47.2753 683.081C47.0815 683.014 46.8714 683.02 46.691 683.096C46.5107 683.173 46.375 683.316 46.3136 683.492C46.2524 683.668 46.2707 683.864 46.3644 684.036C46.4581 684.208 46.6195 684.343 46.8132 684.41C47.2157 684.55 47.6477 684.366 47.775 684C47.9022 683.634 47.6777 683.221 47.2753 683.081ZM77.4499 634.001C77.3539 633.968 77.2648 633.917 77.1877 633.853C77.1106 633.789 77.0471 633.712 77.0007 633.627C76.9543 633.542 76.9259 633.45 76.9173 633.356C76.9086 633.263 76.9198 633.17 76.9502 633.083L78.7985 627.768C78.9262 627.401 79.3564 627.217 79.7603 627.358C80.1642 627.498 80.3876 627.909 80.2599 628.276L78.4116 633.591C78.3813 633.678 78.3324 633.758 78.2677 633.826C78.2029 633.894 78.1236 633.948 78.0343 633.986C77.945 634.024 77.8474 634.045 77.7471 634.048C77.6468 634.05 77.5458 634.034 77.4499 634.001Z" fill="white" fill-opacity="0.1"/>
<path d="M79.8354 631.852L76.9127 630.836C76.5088 630.695 76.2853 630.284 76.413 629.917C76.5407 629.55 76.9708 629.367 77.3747 629.507L80.2974 630.523C80.7015 630.664 80.925 631.075 80.7973 631.442C80.6696 631.809 80.2395 631.993 79.8354 631.852ZM69.358 671.4C69.262 671.366 69.1729 671.316 69.0958 671.252C69.0188 671.188 68.9552 671.111 68.9088 671.026C68.8624 670.94 68.834 670.848 68.8254 670.755C68.8167 670.662 68.8279 670.569 68.8583 670.481L70.7066 665.167C70.8343 664.8 71.2645 664.616 71.6684 664.757C72.0723 664.897 72.2957 665.308 72.168 665.675L70.3197 670.99C70.2894 671.077 70.2405 671.157 70.1758 671.225C70.1111 671.292 70.0318 671.347 69.9424 671.385C69.8531 671.423 69.7555 671.444 69.6552 671.447C69.555 671.449 69.454 671.433 69.358 671.4Z" fill="white" fill-opacity="0.1"/>
<path d="M71.7435 669.251L68.8208 668.234C68.4169 668.094 68.1934 667.683 68.3212 667.316C68.4489 666.948 68.879 666.765 69.2829 666.905L72.2056 667.922C72.6095 668.062 72.8331 668.473 72.7054 668.84C72.5777 669.208 72.1474 669.391 71.7435 669.251Z" fill="white" fill-opacity="0.1"/>
<path d="M10.6114 604.799C9.24559 604.324 8.12947 603.393 7.46867 602.179C6.80793 600.964 6.68167 599.611 7.11351 598.37C7.5458 597.127 8.48431 596.144 9.75562 595.603C12.2989 594.518 15.667 595.69 16.9884 598.118C17.6496 599.332 17.7757 600.684 17.3434 601.927C16.9115 603.169 15.9732 604.152 14.7014 604.694C13.4299 605.237 11.9771 605.274 10.6114 604.799ZM13.3838 596.827C12.4077 596.487 11.3699 596.513 10.4623 596.902C9.55366 597.288 8.88392 597.99 8.57523 598.878C8.42225 599.314 8.36588 599.779 8.4094 600.246C8.45291 600.713 8.59544 601.173 8.82873 601.599C9.77195 603.335 12.1782 604.172 13.9952 603.396C14.9028 603.007 15.574 602.305 15.8822 601.419C16.0351 600.983 16.0915 600.518 16.048 600.051C16.0045 599.584 15.862 599.124 15.6288 598.698C15.3979 598.271 15.0806 597.886 14.6953 597.565C14.3099 597.244 13.8642 596.993 13.3838 596.827Z" fill="white" fill-opacity="0.1"/>
<path d="M6.87589 603.369C6.53632 603.251 6.27013 603.055 6.10898 602.759C6.06255 602.673 6.03418 602.582 6.02548 602.488C6.01678 602.395 6.02791 602.302 6.05825 602.215C6.08859 602.127 6.13755 602.048 6.20231 601.98C6.26707 601.912 6.34638 601.857 6.4357 601.819C6.59455 601.751 6.77733 601.739 6.95229 601.784C7.12724 601.829 7.2833 601.928 7.39336 602.065C7.87015 602.203 9.8102 601.979 12.5823 600.798C15.3529 599.616 16.7604 598.411 16.936 597.994C16.8834 597.832 16.8926 597.662 16.9621 597.513C17.0315 597.364 17.1567 597.245 17.3159 597.178C17.4052 597.139 17.5027 597.118 17.603 597.116C17.7033 597.113 17.8043 597.129 17.9002 597.163C17.9962 597.196 18.0852 597.246 18.1623 597.31C18.2393 597.375 18.3028 597.452 18.3492 597.537C19.3584 599.392 14.3106 601.661 13.2887 602.097C12.4302 602.463 8.65836 603.989 6.87589 603.369Z" fill="white" fill-opacity="0.1"/>
</g>
</g>
<defs>
<clipPath id="clip0_430_1150">
<rect width="1080" height="720" fill="white"/>
</clipPath>
<clipPath id="clip1_430_1150">
<rect width="54.9265" height="74.6731" fill="white" transform="translate(697 378.431) rotate(-0.449155)"/>
</clipPath>
<clipPath id="clip2_430_1150">
<rect width="90.0711" height="90.0711" fill="white" transform="translate(864.908 487) rotate(77.4187)"/>
</clipPath>
<clipPath id="clip3_430_1150">
<rect width="99.0711" height="90.0711" fill="white" transform="translate(1.58655 586) rotate(19.1765)"/>
</clipPath>
</defs>
</svg>
