<svg width="70" height="70" viewBox="0 0 70 70" fill="none" xmlns="http://www.w3.org/2000/svg">
<path d="M48.6816 7.12205C48.3805 7.12205 48.1297 6.8776 48.1297 6.57545C48.1297 6.2733 48.3688 6.02871 48.6709 6.02871H48.6816C48.9837 6.02871 49.2282 6.2733 49.2282 6.57545C49.2282 6.8776 48.9837 7.12205 48.6816 7.12205ZM22.4436 9.30859C22.1426 9.30859 21.8917 9.06414 21.8917 8.76199C21.8917 8.45984 22.1308 8.21539 22.433 8.21539H22.4436C22.7458 8.21539 22.9902 8.45984 22.9902 8.76199C22.9902 9.06414 22.7458 9.30859 22.4436 9.30859ZM34.4694 2.7491C34.1684 2.7491 33.9175 2.50465 33.9175 2.2025C33.9175 1.90035 34.1566 1.65576 34.4587 1.65576H34.4694C34.7716 1.65576 35.016 1.90035 35.016 2.2025C35.016 2.50465 34.7716 2.7491 34.4694 2.7491ZM59.6142 2.7491C59.3131 2.7491 59.0622 2.50465 59.0622 2.2025C59.0622 1.90035 59.3014 1.65576 59.6035 1.65576H59.6142C59.9162 1.65576 60.1608 1.90035 60.1608 2.2025C60.1608 2.50465 59.9162 2.7491 59.6142 2.7491ZM67.267 22.4276C66.9658 22.4276 66.7149 22.1831 66.7149 21.881C66.7149 21.5788 66.9541 21.3344 67.2563 21.3344H67.267C67.569 21.3344 67.8136 21.5788 67.8136 21.881C67.8136 22.1831 67.569 22.4276 67.267 22.4276ZM61.8006 30.0804C61.4995 30.0804 61.2486 29.836 61.2486 29.5338C61.2486 29.2317 61.4878 28.9872 61.7899 28.9872H61.8006C62.1027 28.9872 62.3472 29.2317 62.3472 29.5338C62.3472 29.836 62.1027 30.0804 61.8006 30.0804ZM4.95169 33.3602C4.65064 33.3602 4.39976 33.1156 4.39976 32.8134C4.39976 32.5113 4.63888 32.2668 4.94103 32.2668H4.95169C5.25384 32.2668 5.49829 32.5113 5.49829 32.8134C5.49829 33.1156 5.25384 33.3602 4.95169 33.3602ZM9.32464 45.3858C9.02359 45.3858 8.77271 45.1414 8.77271 44.8392C8.77271 44.5371 9.01183 44.2926 9.31398 44.2926H9.32464C9.62679 44.2926 9.87124 44.5371 9.87124 44.8392C9.87124 45.1414 9.62679 45.3858 9.32464 45.3858ZM0.578606 54.1318C0.277551 54.1318 0.0266724 53.8874 0.0266724 53.5852C0.0266724 53.2831 0.265793 53.0386 0.567942 53.0386H0.578606C0.880754 53.0386 1.12521 53.2831 1.12521 53.5852C1.12521 53.8874 0.880754 54.1318 0.578606 54.1318ZM62.8938 55.2252C62.5929 55.2252 62.3418 54.9807 62.3418 54.6784C62.3418 54.3764 62.5811 54.1318 62.8831 54.1318H62.8938C62.9656 54.1318 63.0367 54.1459 63.103 54.1734C63.1693 54.2008 63.2296 54.2411 63.2804 54.2919C63.3311 54.3426 63.3714 54.4029 63.3988 54.4692C63.4263 54.5356 63.4404 54.6066 63.4404 54.6784C63.4404 54.7502 63.4263 54.8214 63.3989 54.8877C63.3714 54.954 63.3312 55.0143 63.2804 55.0651C63.2296 55.1159 63.1694 55.1562 63.103 55.1836C63.0367 55.2111 62.9656 55.2252 62.8938 55.2252ZM16.9775 58.5049C16.6764 58.5049 16.4255 58.2603 16.4255 57.9582C16.4255 57.656 16.6647 57.4116 16.9668 57.4116H16.9775C17.2796 57.4116 17.5241 57.656 17.5241 57.9582C17.5241 58.2603 17.2796 58.5049 16.9775 58.5049ZM26.9084 68.3442C26.6063 68.3442 26.3565 68.0996 26.3565 67.7976C26.3565 67.4954 26.5956 67.251 26.8978 67.251H26.9084C26.9802 67.2509 27.0513 67.265 27.1177 67.2925C27.184 67.3199 27.2443 67.3602 27.2951 67.4109C27.3458 67.4617 27.3861 67.522 27.4136 67.5883C27.441 67.6547 27.4551 67.7258 27.455 67.7976C27.4551 67.8693 27.441 67.9404 27.4135 68.0068C27.3861 68.0731 27.3458 68.1334 27.295 68.1841C27.2443 68.2349 27.184 68.2752 27.1177 68.3026C27.0513 68.3301 26.9802 68.3442 26.9084 68.3442ZM36.6558 62.8777C36.3549 62.8777 36.1039 62.6333 36.1039 62.3311C36.1039 62.029 36.3431 61.7845 36.6451 61.7845H36.6558C36.958 61.7845 37.2024 62.029 37.2024 62.3311C37.2024 62.6333 36.958 62.8777 36.6558 62.8777ZM69.4534 67.251C69.1524 67.251 68.9015 67.0064 68.9015 66.7042C68.9015 66.4021 69.1406 66.1576 69.4427 66.1576H69.4534C69.7556 66.1576 70 66.4021 70 66.7042C70 67.0064 69.7556 67.251 69.4534 67.251ZM50.8681 65.0643C50.5671 65.0643 50.3162 64.8198 50.3162 64.5177C50.3162 64.2155 50.5553 63.9711 50.8575 63.9711H50.8681C51.1701 63.9711 51.4147 64.2155 51.4147 64.5177C51.4147 64.8198 51.1701 65.0643 50.8681 65.0643ZM48.6816 61.7845C48.3805 61.7845 48.1297 61.5401 48.1297 61.2379C48.1297 60.9358 48.3688 60.6913 48.6709 60.6913H48.6816C48.9837 60.6913 49.2282 60.9358 49.2282 61.2379C49.2282 61.5401 48.9837 61.7845 48.6816 61.7845Z" fill="white" fill-opacity="0.3"/>
<path d="M51.3827 67.251C48.3688 67.251 45.9164 64.7986 45.9164 61.7848C45.9164 58.7709 48.3689 56.3186 51.3827 56.3186C54.3966 56.3186 56.8489 58.7709 56.8489 61.7848C56.8489 64.7986 54.3967 67.251 51.3827 67.251ZM51.3827 57.4117C48.9709 57.4117 47.0098 59.3729 47.0098 61.7846C47.0098 64.1963 48.971 66.1576 51.3827 66.1576C53.7935 66.1576 55.7557 64.1963 55.7557 61.7846C55.7557 59.3729 53.7935 57.4117 51.3827 57.4117Z" fill="white" fill-opacity="0.3"/>
<path d="M53.0226 61.7846C52.1183 61.7846 51.3828 61.049 51.3828 60.1448C51.3828 59.2405 52.1183 58.505 53.0226 58.505C53.9268 58.505 54.6624 59.2405 54.6624 60.1448C54.6624 61.049 53.9269 61.7846 53.0226 61.7846ZM53.0226 59.5982C52.8776 59.5983 52.7386 59.6559 52.6361 59.7584C52.5336 59.8609 52.476 59.9998 52.476 60.1448C52.476 60.2897 52.5336 60.4287 52.6361 60.5312C52.7386 60.6337 52.8776 60.6913 53.0226 60.6914C53.3236 60.6914 53.5692 60.4458 53.5692 60.1448C53.5692 59.8437 53.3236 59.5982 53.0226 59.5982ZM61.7686 15.8681C61.6968 15.8682 61.6257 15.8541 61.5594 15.8266C61.493 15.7992 61.4327 15.7589 61.382 15.7082C61.3312 15.6574 61.2909 15.5971 61.2635 15.5308C61.236 15.4644 61.2219 15.3933 61.222 15.3215V10.9486C61.222 10.6464 61.4664 10.4019 61.7686 10.4019C62.0707 10.4019 62.3152 10.6464 62.3152 10.9486V15.3215C62.3152 15.3933 62.3011 15.4644 62.2737 15.5308C62.2462 15.5971 62.206 15.6574 62.1552 15.7082C62.1044 15.7589 62.0442 15.7992 61.9778 15.8266C61.9115 15.8541 61.8404 15.8682 61.7686 15.8681Z" fill="white" fill-opacity="0.3"/>
<path d="M62.8618 13.6816H60.6754C60.3732 13.6816 60.1288 13.4371 60.1288 13.135C60.1288 12.8328 60.3732 12.5884 60.6754 12.5884H62.8618C63.1641 12.5884 63.4085 12.8328 63.4085 13.135C63.4085 13.4371 63.1641 13.6816 62.8618 13.6816ZM65.0483 45.3858C64.9765 45.3859 64.9054 45.3718 64.8391 45.3443C64.7728 45.3169 64.7125 45.2766 64.6617 45.2259C64.6109 45.1751 64.5707 45.1148 64.5432 45.0485C64.5158 44.9821 64.5017 44.911 64.5017 44.8392V40.4663C64.5017 40.1641 64.7462 39.9197 65.0483 39.9197C65.3505 39.9197 65.5949 40.1641 65.5949 40.4663V44.8392C65.595 44.911 65.5809 44.9821 65.5534 45.0485C65.526 45.1148 65.4857 45.1751 65.435 45.2259C65.3842 45.2766 65.3239 45.3169 65.2576 45.3443C65.1912 45.3718 65.1201 45.3859 65.0483 45.3858Z" fill="white" fill-opacity="0.3"/>
<path d="M66.1415 43.1994H63.9551C63.653 43.1994 63.4085 42.955 63.4085 42.6528C63.4085 42.3507 63.653 42.1062 63.9551 42.1062H66.1415C66.4437 42.1062 66.6883 42.3507 66.6883 42.6528C66.6883 42.955 66.4437 43.1994 66.1415 43.1994Z" fill="white" fill-opacity="0.3"/>
<path d="M9.29263 67.251C9.22083 67.251 9.14973 67.2369 9.08339 67.2094C9.01704 67.1819 8.95677 67.1417 8.906 67.0909C8.85523 67.0401 8.81498 66.9798 8.78753 66.9135C8.76008 66.8471 8.74598 66.776 8.74603 66.7042V62.3313C8.74603 62.0291 8.99049 61.7847 9.29263 61.7847C9.59478 61.7847 9.83924 62.0291 9.83924 62.3313V66.7042C9.83929 66.776 9.82519 66.8471 9.79774 66.9135C9.77029 66.9798 9.73003 67.0401 9.67927 67.0909C9.6285 67.1417 9.56823 67.1819 9.50188 67.2094C9.43554 67.2369 9.36444 67.251 9.29263 67.251Z" fill="white" fill-opacity="0.3"/>
<path d="M10.3858 65.0644H8.19943C7.89729 65.0644 7.65283 64.8199 7.65283 64.5178C7.65283 64.2156 7.89729 63.9712 8.19943 63.9712H10.386C10.6881 63.9712 10.9326 64.2156 10.9326 64.5178C10.9326 64.8199 10.688 65.0644 10.3858 65.0644Z" fill="white" fill-opacity="0.3"/>
<path d="M1.63994 23.521C1.56813 23.521 1.49702 23.5069 1.43067 23.4794C1.36432 23.452 1.30403 23.4117 1.25326 23.3609C1.20248 23.3101 1.16221 23.2499 1.13475 23.1835C1.10728 23.1172 1.09316 23.046 1.0932 22.9742V18.6013C1.09316 18.5295 1.10728 18.4584 1.13475 18.392C1.16221 18.3257 1.20249 18.2654 1.25326 18.2147C1.30404 18.1639 1.36433 18.1236 1.43068 18.0962C1.49703 18.0687 1.56814 18.0546 1.63994 18.0547C1.71173 18.0547 1.78282 18.0688 1.84916 18.0962C1.91549 18.1237 1.97576 18.1639 2.02652 18.2147C2.07729 18.2655 2.11755 18.3257 2.14501 18.3921C2.17246 18.4584 2.18658 18.5295 2.18654 18.6013V22.9742C2.18658 23.046 2.17246 23.1171 2.14501 23.1835C2.11755 23.2498 2.0773 23.3101 2.02653 23.3609C1.97577 23.4116 1.9155 23.4519 1.84917 23.4794C1.78283 23.5069 1.71174 23.521 1.63994 23.521Z" fill="white" fill-opacity="0.3"/>
<path d="M2.73314 21.3344H0.546602C0.244453 21.3344 0 21.09 0 20.7878C0 20.4857 0.244453 20.2412 0.546602 20.2412H2.73314C3.03516 20.2412 3.27975 20.4857 3.27975 20.7878C3.27975 21.09 3.03529 21.3344 2.73314 21.3344Z" fill="white" fill-opacity="0.3"/>
<path d="M10.3858 11.4953C9.36414 11.4953 8.40328 11.097 7.68045 10.3743C6.95762 9.65149 6.55936 8.69063 6.55936 7.66893C6.55936 6.64614 6.95762 5.68528 7.68045 4.96354C9.12598 3.51801 11.6456 3.51801 13.0911 4.96354C13.8139 5.68528 14.2121 6.64614 14.2121 7.66893C14.2121 8.69063 13.8139 9.65149 13.0911 10.3743C12.3684 11.097 11.4075 11.4953 10.3858 11.4953ZM10.3858 4.93579C9.65563 4.93579 8.96902 5.21975 8.45346 5.73641C7.9368 6.25211 7.65283 6.93858 7.65283 7.66893C7.65191 8.02796 7.7222 8.38361 7.85962 8.7153C7.99705 9.04699 8.19889 9.34814 8.45346 9.60131C9.48582 10.6348 11.2859 10.6348 12.3184 9.60131C12.8339 9.08465 13.119 8.39805 13.119 7.66893C13.1199 7.30988 13.0496 6.95422 12.9121 6.62252C12.7747 6.29081 12.5729 5.98964 12.3184 5.73641C12.0652 5.48183 11.764 5.27999 11.4323 5.14256C11.1006 5.00514 10.7449 4.93486 10.3858 4.93579Z" fill="white" fill-opacity="0.3"/>
<path d="M7.56097 11.3992C7.30694 11.3992 7.08382 11.3233 6.90759 11.1472C6.85681 11.0965 6.81654 11.0362 6.78906 10.9699C6.76158 10.9036 6.74744 10.8325 6.74744 10.7607C6.74744 10.6889 6.76158 10.6178 6.78906 10.5515C6.81654 10.4852 6.85681 10.4249 6.90759 10.3742C6.99785 10.2838 7.11692 10.228 7.2441 10.2163C7.37128 10.2046 7.49854 10.2378 7.60376 10.3102C7.95403 10.29 9.19667 9.63003 10.7725 8.05531C12.3472 6.48058 13.0069 5.23685 13.0271 4.88548C12.9545 4.78034 12.9212 4.65305 12.9329 4.52583C12.9447 4.39862 13.0007 4.27956 13.0912 4.18945C13.142 4.13868 13.2022 4.0984 13.2686 4.07092C13.3349 4.04344 13.406 4.0293 13.4777 4.0293C13.5495 4.0293 13.6206 4.04344 13.6869 4.07092C13.7532 4.0984 13.8135 4.13868 13.8642 4.18945C14.9683 5.29331 12.1261 8.24753 11.5454 8.82831C11.0574 9.31626 8.89438 11.3992 7.56097 11.3992Z" fill="white" fill-opacity="0.3"/>
<path d="M16.9444 24.6953C16.8492 24.6953 16.7557 24.6702 16.6733 24.6227C16.6109 24.5872 16.5561 24.5397 16.5121 24.483C16.4681 24.4263 16.4358 24.3615 16.4169 24.2922C16.3981 24.223 16.3931 24.1507 16.4023 24.0795C16.4114 24.0083 16.4346 23.9396 16.4704 23.8774C20.2636 17.2507 27.358 13.135 34.9841 13.135C39.4352 13.135 43.6991 14.494 47.3174 17.065C47.376 17.1065 47.4259 17.1592 47.4641 17.22C47.5024 17.2808 47.5282 17.3485 47.5402 17.4194C47.5522 17.4902 47.5501 17.5627 47.534 17.6327C47.5179 17.7027 47.4882 17.7688 47.4465 17.8273C47.362 17.9449 47.2345 18.0243 47.0917 18.0483C46.949 18.0723 46.8025 18.0389 46.6843 17.9554C43.2529 15.5171 39.2067 14.2283 34.9841 14.2283C27.7489 14.2283 21.0186 18.1337 17.4195 24.4199C17.3716 24.5036 17.3024 24.5732 17.219 24.6215C17.1356 24.6699 17.0408 24.6953 16.9444 24.6953ZM26.7846 54.0891C26.7104 54.0893 26.637 54.0741 26.569 54.0444C22.7371 52.3999 19.472 49.667 17.1783 46.1846C14.8847 42.7022 13.6633 38.6233 13.6656 34.4534C13.6656 32.3523 13.9709 30.2757 14.572 28.2825C14.6586 27.9943 14.9639 27.8309 15.2532 27.9173C15.3219 27.938 15.3859 27.972 15.4415 28.0175C15.497 28.0629 15.5431 28.1189 15.577 28.1821C15.6109 28.2454 15.632 28.3148 15.6391 28.3862C15.6461 28.4576 15.6391 28.5298 15.6182 28.5984C15.0481 30.4893 14.7588 32.459 14.7588 34.4533C14.7566 38.4094 15.9152 42.2793 18.0912 45.5833C20.2672 48.8873 23.3648 51.4802 27.0002 53.0406C27.1334 53.0977 27.2385 53.2053 27.2924 53.3399C27.3462 53.4744 27.3445 53.6249 27.2874 53.7581C27.2451 53.8563 27.1749 53.94 27.0855 53.9989C26.9962 54.0577 26.8916 54.089 26.7846 54.0891ZM34.984 55.7718C33.2864 55.7724 31.5948 55.571 29.9448 55.1718C29.804 55.1373 29.6825 55.0484 29.6071 54.9245C29.5316 54.8006 29.5084 54.6519 29.5425 54.5109C29.614 54.2174 29.9055 54.0444 30.2032 54.1084C31.7685 54.4876 33.3734 54.679 34.984 54.6785C46.1364 54.6785 55.2092 45.606 55.2092 34.4534C55.2092 29.0897 53.1295 24.0355 49.3522 20.222C49.2503 20.1189 49.1935 19.9797 49.1941 19.8348C49.1947 19.6899 49.2526 19.5512 49.3553 19.449C49.5709 19.2354 49.9159 19.2398 50.1293 19.4532C54.1093 23.4729 56.3023 28.8002 56.3023 34.4534C56.3024 46.2081 46.7385 55.7718 34.984 55.7718Z" fill="white" fill-opacity="0.3"/>
<path d="M40.873 50.4549C40.7576 50.4549 40.6392 50.4496 40.5196 50.4389C39.3783 50.3418 38.583 49.4224 38.157 47.7068C37.8751 46.5688 37.7854 45.4104 37.699 44.2905C37.6039 43.0617 37.5143 41.9022 37.1939 40.7502C37.0083 40.0734 36.7104 39.5908 36.2834 39.2738C36.2257 39.231 36.177 39.1773 36.1401 39.1158C36.1032 39.0542 36.0788 38.986 36.0683 38.915C36.0577 38.844 36.0613 38.7716 36.0788 38.7019C36.0963 38.6323 36.1274 38.5668 36.1702 38.5092C36.2568 38.3932 36.3858 38.3161 36.5291 38.2949C36.6723 38.2737 36.8182 38.31 36.9347 38.396C37.5655 38.8648 37.9959 39.5394 38.2478 40.4587C38.5958 41.711 38.694 42.9795 38.789 44.206C38.8756 45.3312 38.9576 46.3948 39.2183 47.4442C39.5192 48.6548 39.9881 49.2966 40.6126 49.3499C42.1276 49.478 43.1631 48.4392 44.1752 47.2659C44.4571 46.9382 44.7624 46.6243 45.0689 46.3104C45.6861 45.6774 46.2689 45.0795 46.6617 44.3652C47.11 43.5453 47.2809 42.6346 47.4614 41.6704C47.6589 40.6167 47.8629 39.5276 48.4533 38.5114L48.6775 38.126C50.4551 35.0738 50.9888 33.7946 51.0732 33.2822C48.1693 33.436 46.4707 32.3149 45.8451 31.1886C45.4917 30.5534 45.4724 29.9128 45.7927 29.4751C46.443 28.59 47.8052 28.9552 49.1217 29.3086C49.932 29.5264 51.0423 29.8232 51.4086 29.5788C51.4428 29.5563 51.5312 29.4966 51.5644 29.2426C51.6765 28.397 53.6741 27.4232 54.6083 27.3027C54.9063 27.2578 55.1816 27.4756 55.2211 27.7746C55.2395 27.9186 55.2 28.0639 55.1113 28.1788C55.0226 28.2937 54.892 28.3687 54.7481 28.3874C53.987 28.4856 52.7804 29.2115 52.6225 29.4731C52.5852 29.8767 52.3726 30.2481 52.0182 30.4873C51.2399 31.0083 50.0739 30.6966 48.8387 30.3645C48.1064 30.1691 46.8828 29.8392 46.6736 30.1232C46.6479 30.1636 46.6341 30.3825 46.8296 30.7071C47.3324 31.5409 48.7523 32.3726 51.2334 32.1761C51.5804 32.1495 51.8655 32.2872 52.0311 32.552C52.4858 33.2769 51.8997 34.7652 49.6225 38.6759L49.3994 39.0591C48.9028 39.9143 48.7245 40.8656 48.5357 41.8722C48.3477 42.8779 48.1534 43.918 47.6208 44.8904C47.1564 45.736 46.4934 46.4161 45.8518 47.0738C45.5614 47.3717 45.271 47.6684 45.0041 47.9792C43.9627 49.1856 42.7072 50.4549 40.873 50.4549ZM32.2509 38.679H32.2349C29.2615 38.5967 27.344 36.6579 27.231 33.6195C27.2053 32.9148 27.2405 32.2401 27.3365 31.6123C27.347 31.5412 27.3714 31.4729 27.4084 31.4113C27.4455 31.3497 27.4943 31.296 27.5522 31.2534C27.6101 31.2108 27.6758 31.1801 27.7457 31.1631C27.8155 31.146 27.888 31.143 27.959 31.1542C28.0299 31.1649 28.0981 31.1896 28.1595 31.2267C28.2209 31.2639 28.2744 31.3127 28.317 31.3705C28.3595 31.4283 28.3902 31.4939 28.4074 31.5636C28.4245 31.6333 28.4278 31.7057 28.417 31.7766C28.3315 32.3372 28.3006 32.9435 28.3231 33.5789C28.4148 36.0215 29.8882 37.5206 32.2648 37.5857C32.3377 37.5849 32.4101 37.5986 32.4776 37.6262C32.5452 37.6537 32.6065 37.6945 32.658 37.7461C32.7096 37.7977 32.7503 37.8591 32.7777 37.9266C32.8052 37.9942 32.8188 38.0666 32.8179 38.1395C32.817 38.2124 32.8015 38.2844 32.7723 38.3513C32.7431 38.4181 32.7009 38.4785 32.6481 38.5287C32.5952 38.579 32.5329 38.6182 32.4646 38.644C32.3964 38.6698 32.3237 38.6817 32.2509 38.679ZM30.0634 28.2012C29.9053 28.2012 29.7484 28.1328 29.6406 28.0016C29.5489 27.8893 29.5053 27.7453 29.5195 27.6011C29.5337 27.4568 29.6045 27.324 29.7164 27.2318C31.447 25.815 33.4659 25.6207 33.9656 25.7093C36.5535 26.1587 38.0099 26.5046 38.5425 26.7941C38.6893 26.876 38.8425 26.946 39.0005 27.0034C39.068 27.0281 39.13 27.0659 39.1828 27.1146C39.2357 27.1634 39.2784 27.222 39.3086 27.2873C39.3387 27.3525 39.3557 27.4231 39.3585 27.4949C39.3614 27.5667 39.35 27.6384 39.3251 27.7058C39.2216 27.9898 38.9066 28.1339 38.6237 28.0304C38.4144 27.9537 38.2113 27.8609 38.0163 27.7529C37.7866 27.6279 36.9262 27.3333 33.7735 26.7856C33.5814 26.7589 31.885 26.8679 30.4095 28.0774C30.312 28.1575 30.1896 28.2013 30.0634 28.2012ZM40.9958 25.3006C40.9348 25.3005 40.8742 25.2905 40.8164 25.2707C38.9065 24.6089 36.012 24.0088 34.6989 23.9149C34.5036 23.8903 34.1876 23.9587 33.8748 24.0153C33.0731 24.1583 32.0748 24.3376 31.4929 23.7024C30.9559 23.1046 31.052 22.1981 31.7469 21.2715C33.515 18.9441 36.1103 17.916 38.6203 16.922C39.4808 16.5815 40.3702 16.2291 41.1997 15.832C41.3021 15.6803 41.52 15.2747 41.6555 14.8101C41.7398 14.5208 42.0431 14.3574 42.3335 14.4376C42.4725 14.4784 42.5897 14.5726 42.6594 14.6997C42.729 14.8268 42.7454 14.9763 42.7051 15.1154C42.5812 15.5425 42.1798 16.5481 41.7955 16.7574C40.8784 17.2037 39.9356 17.5774 39.0228 17.9382C36.5427 18.9204 34.2005 19.8482 32.6192 21.9302C32.3384 22.3049 32.1378 22.7842 32.3021 22.9679C32.4741 23.1548 33.2299 23.0202 33.6815 22.9391C34.0798 22.8686 34.4598 22.7982 34.778 22.8239C36.1573 22.9231 39.1873 23.5488 41.1741 24.2374C41.3112 24.2849 41.4239 24.3849 41.4874 24.5154C41.5509 24.6459 41.5599 24.7963 41.5126 24.9335C41.4751 25.0406 41.4052 25.1335 41.3126 25.1992C41.22 25.265 41.1094 25.3004 40.9958 25.3006ZM20.2988 49.4577L20.1076 48.9452L20.0244 48.4051L20.1076 48.9463L19.6187 48.7072C19.8503 48.1296 21.0183 43.1064 19.1585 39.2203C18.1604 37.1341 16.4415 35.7068 14.0521 34.9764L14.3713 33.9302C19.8803 35.6138 21.1668 40.2389 21.2767 43.8228C21.3248 45.3687 20.9948 49.1972 20.2988 49.4577ZM31.1577 48.6655C29.6502 48.6655 28.4245 47.44 28.4245 45.9324C28.4245 44.425 29.6501 43.1994 31.1577 43.1994C32.6642 43.1994 33.8908 44.425 33.8908 45.9324C33.8908 47.44 32.664 48.6655 31.1577 48.6655ZM31.1577 44.2926C30.2534 44.2926 29.5179 45.0282 29.5179 45.9324C29.5179 46.8368 30.2534 47.5723 31.1577 47.5723C32.0619 47.5723 32.7976 46.8368 32.7976 45.9324C32.7975 45.0282 32.0619 44.2926 31.1577 44.2926Z" fill="white" fill-opacity="0.3"/>
<path d="M21.3184 30.0804C19.8109 30.0804 18.5853 28.8547 18.5853 27.3473C18.5853 25.8398 19.8109 24.6143 21.3184 24.6143C22.8249 24.6143 24.0516 25.8398 24.0516 27.3473C24.0514 28.8547 22.8248 30.0804 21.3184 30.0804ZM21.3184 25.7073C20.4142 25.7073 19.6785 26.4429 19.6785 27.3471C19.6785 28.2514 20.414 28.9871 21.3184 28.9871C22.2228 28.9871 22.9582 28.2514 22.9582 27.3471C22.9582 26.4429 22.2227 25.7073 21.3184 25.7073Z" fill="white" fill-opacity="0.3"/>
<path d="M37.7172 35.5466C36.2097 35.5466 34.984 34.3209 34.984 32.8135C34.984 31.306 36.2097 30.0803 37.7172 30.0803C39.2237 30.0803 40.4502 31.306 40.4502 32.8135C40.4502 34.3209 39.2237 35.5466 37.7172 35.5466ZM37.7172 31.1737C36.8129 31.1737 36.0772 31.9093 36.0772 32.8136C36.0772 33.7179 36.8129 34.4535 37.7172 34.4535C38.6214 34.4535 39.357 33.718 39.357 32.8136C39.357 31.9093 38.6214 31.1737 37.7172 31.1737Z" fill="white" fill-opacity="0.3"/>
<path d="M27.8779 56.3184C27.7957 56.3184 27.7145 56.2999 27.6404 56.2641C27.5663 56.2284 27.5012 56.1765 27.45 56.1121C27.3988 56.0478 27.3628 55.9727 27.3446 55.8925C27.3264 55.8123 27.3266 55.729 27.3451 55.6489C27.9558 53.0001 28.7384 50.3268 29.6682 47.7056C29.7686 47.4207 30.0804 47.268 30.3665 47.3737C30.4341 47.3975 30.4965 47.4345 30.5498 47.4824C30.6032 47.5304 30.6465 47.5884 30.6774 47.6532C30.7082 47.718 30.726 47.7882 30.7296 47.8599C30.7333 47.9316 30.7227 48.0032 30.6986 48.0708C29.7825 50.6534 29.0117 53.2861 28.4106 55.8944C28.3827 56.0148 28.3149 56.1223 28.2182 56.1993C28.1214 56.2762 28.0015 56.3182 27.8779 56.3184Z" fill="white" fill-opacity="0.3"/>
<path d="M31.7598 44.378C31.6868 44.3778 31.6146 44.3633 31.5473 44.3354C31.4139 44.2787 31.3084 44.1715 31.254 44.0372C31.1995 43.9029 31.2006 43.7525 31.2569 43.619C32.5892 40.462 34.165 37.3232 35.9406 34.2901C36.0139 34.1652 36.1337 34.0744 36.2738 34.0378C36.414 34.0012 36.5629 34.0216 36.6879 34.0947C36.813 34.1681 36.9038 34.2881 36.9407 34.4283C36.9775 34.5686 36.9573 34.7177 36.8845 34.8431C35.1325 37.8345 33.578 40.9308 32.2638 44.0439C32.222 44.143 32.1519 44.2276 32.0622 44.287C31.9725 44.3464 31.8673 44.3781 31.7598 44.378Z" fill="white" fill-opacity="0.3"/>
<path d="M38.7111 31.4138C38.6087 31.4138 38.504 31.3851 38.4111 31.3242C38.2903 31.2444 38.206 31.1199 38.1767 30.9779C38.1475 30.836 38.1758 30.6883 38.2553 30.5672C43.8636 22.0434 49.3255 17.1483 49.3799 17.0992C49.4889 17.0067 49.6298 16.9605 49.7724 16.9706C49.9149 16.9807 50.0479 17.0461 50.1428 17.153C50.2377 17.2599 50.287 17.3997 50.2801 17.5425C50.2732 17.6853 50.2107 17.8197 50.1059 17.9169C50.0525 17.9639 44.692 22.7725 39.1682 31.1673C39.1185 31.2432 39.0507 31.3055 38.9709 31.3485C38.8911 31.3916 38.8018 31.414 38.7111 31.4138Z" fill="white" fill-opacity="0.3"/>
<path d="M19.1596 27.5437C19.1245 27.5437 19.0881 27.5405 19.0519 27.533C17.5636 27.2351 16.0935 26.9874 14.6854 26.7953C14.5417 26.7758 14.4117 26.7001 14.3238 26.5848C14.2359 26.4695 14.1973 26.324 14.2166 26.1803C14.2583 25.8813 14.5336 25.6626 14.8326 25.7127C16.2633 25.907 17.7558 26.159 19.2666 26.4611C19.4086 26.4896 19.5336 26.5732 19.6141 26.6937C19.6946 26.8142 19.7239 26.9617 19.6957 27.1039C19.6708 27.2278 19.6039 27.3393 19.5062 27.4194C19.4085 27.4996 19.286 27.5435 19.1596 27.5437Z" fill="white" fill-opacity="0.3"/>
<path d="M35.7079 32.5198C35.6407 32.5198 35.5712 32.507 35.505 32.4803C33.2727 31.5867 28.716 29.8806 23.2818 28.4979C23.2123 28.4803 23.1469 28.4492 23.0893 28.4062C23.0318 28.3633 22.9833 28.3095 22.9467 28.2478C22.91 28.1861 22.8858 28.1178 22.8755 28.0468C22.8653 27.9758 22.8691 27.9034 22.8868 27.8339C22.9041 27.764 22.9351 27.6983 22.978 27.6405C23.0209 27.5827 23.0749 27.534 23.1368 27.4973C23.1987 27.4605 23.2673 27.4364 23.3385 27.4264C23.4098 27.4164 23.4824 27.4207 23.552 27.4389C29.046 28.8374 33.654 30.5617 35.9119 31.466C36.0463 31.5198 36.1539 31.6249 36.211 31.758C36.268 31.8911 36.2699 32.0414 36.2162 32.176C36.1753 32.2773 36.1051 32.3642 36.0146 32.4255C35.924 32.4867 35.8172 32.5196 35.7079 32.5198Z" fill="white" fill-opacity="0.3"/>
</svg>
