<svg width="48" height="47" viewBox="0 0 48 47" fill="none" xmlns="http://www.w3.org/2000/svg">
<path d="M43.4 12.7879C43.42 12.8271 43.42 12.8859 43.42 12.9446V21.3459C43.42 21.5417 43.3 21.7767 43.12 21.8746L35.9 25.9479V33.9967C35.9 34.2121 35.8 34.4079 35.6 34.5254L20.56 43.005C20.52 43.0246 20.48 43.0834 20.44 43.0834H20C20 43.0834 20 43.0246 19.92 43.005L4.88 34.5254C4.78783 34.47 4.71181 34.3922 4.65927 34.2995C4.60672 34.2069 4.57942 34.1026 4.58 33.9967V8.81253C4.58 8.71461 4.58 8.65586 4.6 8.6167C4.6 8.59711 4.62 8.57753 4.62 8.55795C4.62 8.51878 4.64 8.4992 4.66 8.46003C4.66 8.44045 4.68 8.42086 4.7 8.40128L4.76 8.34253L4.82 8.28378C4.84 8.2642 4.86 8.24461 4.88 8.24461L12.4 3.99503C12.6 3.9167 12.84 3.9167 13 3.99503L20.56 8.24461C20.58 8.2642 20.6 8.2642 20.62 8.28378L20.68 8.34253L20.74 8.40128C20.76 8.42086 20.78 8.44045 20.78 8.46003C20.8 8.4992 20.82 8.51878 20.82 8.55795C20.82 8.57753 20.84 8.59711 20.84 8.6167C20.86 8.67545 20.86 8.71461 20.86 8.81253V24.4792L27.14 20.9934V12.9446C27.14 12.8859 27.14 12.8271 27.16 12.7879L27.18 12.7292C27.18 12.7292 27.2 12.6704 27.22 12.6313C27.22 12.6117 27.24 12.5921 27.26 12.5725L27.32 12.5138L27.38 12.455C27.4 12.4354 27.42 12.4159 27.44 12.4159L35 8.16628C35.16 8.04878 35.4 8.04878 35.6 8.16628L43.12 12.4159C43.14 12.4159 43.16 12.4354 43.18 12.455L43.24 12.5138L43.3 12.5725C43.32 12.5921 43.32 12.6117 43.34 12.6313C43.36 12.6704 43.36 12.7292 43.38 12.7292C43.4 12.7292 43.4 12.7292 43.4 12.7879ZM42.18 20.9934V14.0021L35.9 17.5271V24.4792L42.18 20.9934ZM34.66 33.6442V26.6334L20.86 34.3492V41.4188L34.66 33.6442ZM5.82 9.7917V33.6442L19.62 41.4188V34.3492L12.42 30.3542H12.4C12.38 30.3542 12.36 30.3542 12.34 30.2954C12.32 30.2954 12.3 30.2759 12.28 30.2563L12.22 30.1975C12.2 30.1779 12.2 30.1584 12.18 30.1388C12.16 30.0996 12.16 30.08 12.14 30.0604C12.14 30.0213 12.12 30.0017 12.12 29.9821C12.1 29.9625 12.1 29.9234 12.1 29.9038V13.3559L5.82 9.7917ZM12.72 5.24836L6.46 8.81253L12.72 12.2984L19 8.81253L12.72 5.24836ZM19.62 25.2234V9.7917L13.34 13.3559V28.7679L19.62 25.2234ZM35.28 9.40003L29 12.9446L35.28 16.4696L41.54 12.9446L35.28 9.40003ZM34.66 17.5271L28.38 14.0021V20.9934L34.66 24.4792V17.5271ZM20.24 33.2917L34 25.5759L27.76 22.0509L14 29.8254L20.24 33.2917Z" fill="white" fill-opacity="0.3"/>
</svg>
