<svg width="44" height="44" viewBox="0 0 44 44" fill="none" xmlns="http://www.w3.org/2000/svg">
<g clip-path="url(#clip0_109_234)">
<path fill-rule="evenodd" clip-rule="evenodd" d="M36.784 17.6213C36.3911 17.7181 36.1509 18.1149 36.2472 18.5079C36.5266 19.6509 36.6675 20.8234 36.6667 22C36.6667 22.405 36.995 22.7334 37.4 22.7334C37.805 22.7334 38.1333 22.405 38.1333 22C38.1341 20.7057 37.9787 19.416 37.6706 18.1588C37.5741 17.7656 37.1772 17.525 36.784 17.6213Z" fill="white" fill-opacity="0.2"/>
<path fill-rule="evenodd" clip-rule="evenodd" d="M36.575 15.0847C33.8863 9.47134 28.224 5.89022 22 5.8667C21.595 5.8667 21.2667 6.19502 21.2667 6.60003C21.2667 7.00504 21.595 7.33337 22 7.33337C27.6587 7.35478 32.8065 10.6113 35.2499 15.7154C35.424 16.0813 35.8618 16.2368 36.2278 16.0626C36.5937 15.8884 36.7492 15.4506 36.575 15.0847Z" fill="white" fill-opacity="0.2"/>
<path fill-rule="evenodd" clip-rule="evenodd" d="M17.0661 38.896C10.3004 36.9278 5.36446 31.1088 4.52614 24.1127C4.49496 23.8525 4.32736 23.6288 4.08646 23.5257C3.84557 23.4226 3.56798 23.4559 3.35826 23.613C3.14854 23.77 3.03856 24.0271 3.06974 24.2872C3.97839 31.8667 9.32577 38.171 16.6555 40.304C16.907 40.3773 17.1785 40.3109 17.3678 40.1298C17.5571 39.9487 17.6354 39.6803 17.5732 39.4258C17.5109 39.1713 17.3177 38.9693 17.0661 38.896Z" fill="white" fill-opacity="0.2"/>
<path fill-rule="evenodd" clip-rule="evenodd" d="M24.1127 39.4738C22.7093 39.6417 21.2908 39.6417 19.8873 39.4738C19.4851 39.4256 19.12 39.7125 19.0718 40.1147C19.0236 40.5169 19.3106 40.882 19.7127 40.9302C21.2322 41.1121 22.7679 41.1121 24.2873 40.9302C24.6895 40.882 24.9764 40.5169 24.9282 40.1147C24.88 39.7125 24.5149 39.4256 24.1127 39.4738Z" fill="white" fill-opacity="0.2"/>
<path fill-rule="evenodd" clip-rule="evenodd" d="M30.3901 4.88033C30.0268 4.70346 29.589 4.85367 29.4108 5.21625C29.2327 5.57883 29.3813 6.01721 29.7433 6.19666C35.7904 9.1352 39.6209 15.2767 39.6 22C39.6 22.405 39.9283 22.7333 40.3333 22.7333C40.7383 22.7333 41.0667 22.405 41.0667 22C41.0897 14.7169 36.9405 8.06385 30.3901 4.88033Z" fill="white" fill-opacity="0.2"/>
<path fill-rule="evenodd" clip-rule="evenodd" d="M22 4.40002C22.9434 4.40031 23.8853 4.47559 24.8167 4.62515C24.8556 4.63097 24.8948 4.63391 24.9341 4.63395C25.3158 4.63292 25.6329 4.33925 25.6631 3.95875C25.6934 3.57824 25.4267 3.23816 25.0499 3.17682C24.0414 3.01451 23.0215 2.9331 22 2.93335C21.595 2.93335 21.2667 3.26167 21.2667 3.66668C21.2667 4.07169 21.595 4.40002 22 4.40002Z" fill="white" fill-opacity="0.2"/>
<path d="M22 0C9.84974 0 0 9.84974 0 22C0 34.1503 9.84974 44 22 44C34.1503 44 44 34.1503 44 22C43.9863 9.85543 34.1446 0.0137405 22 0ZM22 42.5333C10.6598 42.5333 1.46667 33.3402 1.46667 22C1.46667 10.6598 10.6598 1.46667 22 1.46667C33.3402 1.46667 42.5333 10.6598 42.5333 22C42.5204 33.3349 33.3349 42.5204 22 42.5333Z" fill="white" fill-opacity="0.2"/>
<path d="M22 13.9333C17.5449 13.9333 13.9333 17.5449 13.9333 22C13.9333 26.4551 17.5449 30.0667 22 30.0667C26.4551 30.0667 30.0667 26.4551 30.0667 22C30.0614 17.5471 26.4529 13.9386 22 13.9333ZM22 28.6C18.3549 28.6 15.4 25.6451 15.4 22C15.4 18.3549 18.3549 15.4 22 15.4C25.6451 15.4 28.6 18.3549 28.6 22C28.596 25.6434 25.6434 28.596 22 28.6Z" fill="white" fill-opacity="0.2"/>
<path d="M22 19.0667C20.3799 19.0667 19.0667 20.3799 19.0667 22C19.0667 23.62 20.3799 24.9333 22 24.9333C23.62 24.9333 24.9333 23.62 24.9333 22C24.9333 20.3799 23.62 19.0667 22 19.0667ZM22 23.4667C21.19 23.4667 20.5333 22.81 20.5333 22C20.5333 21.19 21.19 20.5333 22 20.5333C22.81 20.5333 23.4667 21.19 23.4667 22C23.4667 22.81 22.81 23.4667 22 23.4667Z" fill="white" fill-opacity="0.2"/>
</g>
<defs>
<clipPath id="clip0_109_234">
<rect width="44" height="44" fill="white"/>
</clipPath>
</defs>
</svg>
