<svg width="54" height="54" viewBox="0 0 54 54" fill="none" xmlns="http://www.w3.org/2000/svg">
<path d="M27 20.25H11.25C10.0565 20.25 8.91193 20.7241 8.06802 21.568C7.22411 22.4119 6.75 23.5565 6.75 24.75V33.75C6.75 34.9435 7.22411 36.0881 8.06802 36.932C8.91193 37.7759 10.0565 38.25 11.25 38.25H18M27 33.75H42.75C43.9435 33.75 45.0881 33.2759 45.932 32.432C46.7759 31.5881 47.25 30.4435 47.25 29.25V20.25C47.25 19.0565 46.7759 17.9119 45.932 17.068C45.0881 16.2241 43.9435 15.75 42.75 15.75H36" stroke="white" stroke-opacity="0.3" stroke-width="2" stroke-linecap="round" stroke-linejoin="round"/>
<path d="M18 20.25V11.25C18 10.0565 18.4741 8.91193 19.318 8.06802C20.1619 7.22411 21.3065 6.75 22.5 6.75H31.5C32.6935 6.75 33.8381 7.22411 34.682 8.06802C35.5259 8.91193 36 10.0565 36 11.25V22.5C36 23.6935 35.5259 24.8381 34.682 25.682C33.8381 26.5259 32.6935 27 31.5 27H22.5C21.3065 27 20.1619 27.4741 19.318 28.318C18.4741 29.1619 18 30.3065 18 31.5V42.75C18 43.9435 18.4741 45.0881 19.318 45.932C20.1619 46.7759 21.3065 47.25 22.5 47.25H31.5C32.6935 47.25 33.8381 46.7759 34.682 45.932C35.5259 45.0881 36 43.9435 36 42.75V33.75M24.75 13.5V13.5225M29.25 40.5V40.5225" stroke="white" stroke-opacity="0.3" stroke-width="2" stroke-linecap="round" stroke-linejoin="round"/>
</svg>
