<svg width="25" height="27" viewBox="0 0 25 27" fill="none" xmlns="http://www.w3.org/2000/svg">
<path d="M18.375 26.4193V19.961C18.375 19.3901 18.2478 18.8489 18.0249 18.36C18.5578 18.2521 19.0906 18.1288 19.6214 17.9718C21.2535 17.4901 23.5959 15.4925 24.2882 13.5395C25.0555 11.3721 25.0555 9.17366 24.2882 7.00624L24.2876 7.0056C24.15 6.61616 23.9408 6.22349 23.643 5.79918C24.1907 3.76222 23.8064 2.05851 23.7884 1.97908L23.5526 0.968994L22.5154 0.981265C22.4185 0.982557 20.2679 1.02195 18.1728 2.24387C15.7479 1.76983 13.254 1.76983 10.8291 2.24387C8.73463 1.02195 6.58401 0.982557 6.48649 0.981265L5.44799 0.968994L5.21226 1.97908C5.19417 2.05851 4.8099 3.76222 5.35757 5.79918C5.05984 6.22349 4.85059 6.61681 4.71238 7.00624C3.94578 9.17366 3.94578 11.3721 4.71303 13.5401C5.40407 15.4925 7.74651 17.4901 9.37917 17.9718C9.91005 18.1288 10.4429 18.2521 10.9757 18.36C10.7449 18.8622 10.6253 19.4083 10.625 19.961V20.7883C10.5849 20.8116 10.543 20.8303 10.5042 20.8581C10.3176 20.9943 8.65132 22.1284 6.9489 20.9162C6.34828 20.3052 6.05378 19.8577 5.76961 19.425C5.13153 18.4562 4.58063 17.7548 2.80653 16.8675C2.50001 16.7143 2.14519 16.6891 1.82011 16.7975C1.49503 16.9059 1.22633 17.139 1.07311 17.4455C0.919896 17.752 0.894719 18.1068 1.00312 18.4319C1.11152 18.757 1.34462 19.0257 1.65113 19.1789C2.93699 19.8215 3.16303 20.1638 3.61124 20.8458C3.94384 21.3502 4.35717 21.9786 5.1903 22.8117L5.32915 22.9318C6.4219 23.7521 7.55534 24.0446 8.59255 24.0446C9.2861 24.041 9.97378 23.9171 10.625 23.6784V26.4252L18.375 26.4193Z" fill="white"/>
</svg>
