<svg width="23" height="23" viewBox="0 0 23 23" fill="none" xmlns="http://www.w3.org/2000/svg">
<path fill-rule="evenodd" clip-rule="evenodd" d="M11.8523 0.822266C5.82116 0.822266 0.931885 5.60282 0.931885 11.5C0.931885 17.3972 5.82116 22.1778 11.8523 22.1778C17.8836 22.1778 22.7728 17.3972 22.7728 11.5C22.7728 5.60282 17.8836 0.822266 11.8523 0.822266ZM11.8523 20.0423C7.03512 20.0423 3.11598 16.2102 3.11598 11.5C3.11598 6.78987 7.03512 2.95782 11.8523 2.95782C16.6696 2.95782 20.5887 6.78987 20.5887 11.5C20.5887 16.2102 16.6696 20.0423 11.8523 20.0423ZM13.2198 7.22893C13.2198 8.00311 12.6433 8.56366 11.8634 8.56366C11.052 8.56366 10.4897 8.00311 10.4897 7.21412C10.4897 6.45581 11.0672 5.89421 11.8634 5.89421C12.6433 5.89421 13.2198 6.45581 13.2198 7.22893ZM10.7627 10.4323H12.9468V16.8389H10.7627V10.4323Z" fill="#FFD700"/>
</svg>
